<svg style="position:absolute;left:-100%" height="0" width="0" xmlns="http://www.w3.org/2000/svg"><symbol id="icon-arrow-bottom" viewBox="0 0 32 32"><path d="m6 22 10 8 10-8m-10 8V2"/></symbol><symbol id="icon-arrow-left" viewBox="0 0 32 32"><path d="M10 6 2 16l8 10M2 16h28"/></symbol><symbol id="icon-arrow-o-down" viewBox="0 0 10 16"><path fill-rule="evenodd" d="M7 7V3H3v4H0l5 6 5-6z"/></symbol><symbol id="icon-arrow-o-up" viewBox="0 0 10 16"><path fill-rule="evenodd" d="M5 3 0 9h3v4h4V9h3z"/></symbol><symbol id="icon-arrow-right" viewBox="0 0 32 32"><path d="m22 6 8 10-8 10m8-10H2"/></symbol><symbol id="icon-arrow-top" viewBox="0 0 32 32"><path d="m6 10 10-8 10 8M16 2v28"/></symbol><symbol id="icon-assist" viewBox="0 0 20 11"><rect width="1.663" height="1.946" x="2.508" y="8.813" stroke="#000" stroke-width=".483" rx=".241"/><rect width="1.663" height="1.946" x="17.654" y="8.813" stroke="#000" stroke-width=".483" rx=".241"/><rect width="1.663" height="1.946" x="7.051" y="8.813" stroke="#000" stroke-width=".483" rx=".241"/><path stroke="#000" stroke-width="1.091" d="M2.693 8.875C1.868 8.447.983 7.725.667 6.89a1.76 1.76 0 0 1 .002-1.29c.18-.48.59-1.043 1.386-1.663a.1.1 0 0 1 .04-.02l11.3-3.197a.15.15 0 0 1 .117.018.22.22 0 0 1 .099.124c.315.985.88 2.124 1.775 2.773.46.334 1.014.54 1.65.513.628-.026 1.285-.278 1.965-.766a.34.34 0 0 1 .321-.025c.108.045.133.108.133.157v5.232a.136.136 0 0 1-.137.136H2.738a.1.1 0 0 1-.045-.008l-.25.484z"/><path stroke="#000" stroke-width=".944" d="M9.398 1.714 11.543 9M7 2l2.146 7.286"/></symbol><symbol id="icon-ball" viewBox="0 0 20 20"><path fill-rule="evenodd" d="M0 9.984c0 5.519 4.481 10 10 10s10-4.481 10-10-4.481-10-10-10-10 4.48-10 10m7.53-.219-2.318 2.106 1.045 3.951 3.165 1.097 3.102-2.884-1.189-2.935zM3.199 4.091a8.99 8.99 0 0 1 6.184-3.087l.145.771-3.421 3.601-2.167.122zm4.466 4.661L6.95 5.939l3.189-3.355c.69.059 1.515.275 2.353.646q.574.255 1.06.557l.336 4.472-2.181 1.911zM2.529 4.966A8.95 8.95 0 0 0 1.001 9.86l1.128-.335.883-3.643zM1.045 10.89a9 9 0 0 0 3.473 6.229l.768-1.06-1.081-4.083-1.694-1.521zm9.161 8.091a8.98 8.98 0 0 0 6.404-2.893l-.845-1.485-2.387.004-3.34 3.104zm8.701-10.296a9 9 0 0 0-2.935-5.432l-1.407.668.315 4.195 2.135 1.662zm.091 1.103.002.196a8.96 8.96 0 0 1-1.71 5.276l-.712-1.25.997-3.401z"/></symbol><symbol id="icon-ball_canceled" viewBox="0 0 20 20"><g clip-path="url(#icon-ball_canceled-a)"><path fill="#fff" d="M0 0h20v20H0z"/><path fill="#7f7e7e" fill-rule="evenodd" d="M19 10a9 9 0 1 1-18 0 9 9 0 0 1 18 0m1 0c0 5.523-4.477 10-10 10S0 15.523 0 10 4.477 0 10 0s10 4.477 10 10M4.556 12.13l2.9-2.722v-.177l-.888-3.787-3.61.532c-.682 1.39-.899 2.239-1.065 3.846.904 1.039 1.492 1.54 2.663 2.308" clip-rule="evenodd"/><path fill="#7f7e7e" stroke="#7f7e7e" d="M12.012 10.77c.959-1.101 1.584-1.664 2.9-2.545 1.028.344 1.61.788 2.662 2.07-.193 1.616-.476 2.496-1.243 4.024-1.241.35-1.983.426-3.432.237zM9.882 2.722 9.408.888c2.702.13 4.068.557 6.213 2.011l-1.716 1.184c-1.373-.936-2.243-1.256-4.023-1.361ZM5.562 15.976 4.5 17c2.09 1.422 3.337 1.93 5.737 2.172l-.651-1.716c-1.706-.04-2.577-.402-4.024-1.48Z"/><path stroke="#d51818" stroke-width="3" d="m1.061.939 18 18M19.061 1.061l-18 18"/></g><defs><clipPath id="icon-ball_canceled-a"><path d="M0 0h20v20H0z"/></clipPath></defs></symbol><symbol id="icon-ball_dual" viewBox="0 0 20 20"><circle cx="10" cy="10" r="10" fill="#ccc"/><circle cx="10" cy="10" r="9" fill="#000"/><path fill="#fff" fill-rule="evenodd" d="m7.53 9.765-2.318 2.106 1.045 3.951 3.165 1.097 3.102-2.884-1.189-2.935zM3.199 4.091a8.99 8.99 0 0 1 6.184-3.087l.145.771-3.421 3.601-2.167.122zm4.466 4.661L6.95 5.939l3.189-3.355c.69.059 1.515.275 2.353.646.381.169.737.357 1.06.557l.336 4.472-2.181 1.911zM2.5 5a8.8 8.8 0 0 0-1.499 4.86l1.128-.335.883-3.643zm-1.455 5.89a9 9 0 0 0 3.473 6.229l.768-1.06-1.081-4.083-1.694-1.521zm9.161 8.091a8.98 8.98 0 0 0 6.404-2.893l-.845-1.485-2.387.004-3.34 3.104zm8.701-10.296a9 9 0 0 0-2.935-5.432l-1.407.668.315 4.195 2.135 1.662zm.091 1.103.002.196a8.96 8.96 0 0 1-1.71 5.276l-.712-1.25.997-3.401z" clip-rule="evenodd"/></symbol><symbol id="icon-ball_dual2" viewBox="0 0 20 20"><circle cx="10" cy="10" r="10" fill="#fff"/><path fill="#000" fill-rule="evenodd" d="M1 10c0 4.967 4.033 9 9 9s9-4.033 9-9c0-4.968-4.033-9-9-9s-9 4.032-9 9m6.777-.197-2.086 1.895.94 3.556 2.849.987 2.792-2.595-1.07-2.642zM3.879 4.696a8.1 8.1 0 0 1 5.566-2.778l.13.694-3.079 3.24-1.95.11zM7.9 8.891 7.255 6.36l2.87-3.019c.621.053 1.364.248 2.118.581q.516.23.954.502l.302 4.024-1.963 1.72zM3.276 5.484a8.05 8.05 0 0 0-1.375 4.404l1.015-.301.795-3.279zm-1.335 5.331a8.1 8.1 0 0 0 3.125 5.607l.691-.955-.972-3.674-1.525-1.37zm8.244 7.282a8.08 8.08 0 0 0 5.764-2.603l-.76-1.337-2.149.004-3.006 2.793zm7.831-9.266a8.1 8.1 0 0 0-2.641-4.889l-1.267.601.284 3.776 1.922 1.496zm.082.993L18.1 10a8.06 8.06 0 0 1-1.539 4.748l-.64-1.125.896-3.06z" clip-rule="evenodd"/></symbol><symbol id="icon-ball_penalty" viewBox="0 0 20 20"><g clip-path="url(#icon-ball_penalty-a)"><circle cx="10" cy="10" r="9.5" stroke="#129e27"/><path fill="#129e27" d="m7.456 9.408-2.9 2.722c-1.171-.769-1.76-1.27-2.663-2.308.166-1.607.383-2.456 1.066-3.846l3.61-.532.887 3.787z"/><path stroke="#129e27" d="m6.568 5.444.888 3.787v.177l-2.9 2.722c-1.171-.769-1.76-1.27-2.663-2.308.166-1.607.383-2.456 1.066-3.846zm0 0h-.06"/><path fill="#129e27" stroke="#129e27" d="M12.012 10.77c.959-1.101 1.584-1.664 2.9-2.545 1.028.344 1.61.788 2.662 2.07-.193 1.616-.476 2.496-1.243 4.024-1.241.35-1.983.426-3.432.237z"/><path stroke="#129e27" d="M7.456 9.35c1.935.803 2.943 1.124 4.615 1.478"/><path fill="#129e27" stroke="#129e27" d="M9.882 2.722 9.408.888c2.702.13 4.068.557 6.213 2.011l-1.716 1.184c-1.373-.936-2.243-1.256-4.023-1.361Z"/><path stroke="#129e27" d="M6.45 5.562c1.16-1.401 1.947-2.065 3.668-2.958M13.905 3.846c.818 1.786 1.027 2.797 1.006 4.616"/><path fill="#129e27" stroke="#129e27" d="M5.562 15.976 4.5 17c2.09 1.422 3.337 1.93 5.737 2.172l-.651-1.716c-1.706-.04-2.577-.402-4.024-1.48Z"/><path stroke="#129e27" d="M5.74 16.213c-1.11-1.381-1.05-3.724-1.243-4.438M9.29 17.515c2.308-1.125 2.606-1.81 3.728-3.136M17.5 10.5l2-1M16.5 14.5l1 1M3 6 2 5M2 9.5l-1.5 1"/></g><defs><clipPath id="icon-ball_penalty-a"><path d="M0 0h20v20H0z"/></clipPath></defs></symbol><symbol id="icon-calendar" viewBox="0 0 14 16"><path fill-rule="evenodd" d="M13 2h-1v1.5c0 .28-.22.5-.5.5h-2c-.28 0-.5-.22-.5-.5V2H6v1.5c0 .28-.22.5-.5.5h-2c-.28 0-.5-.22-.5-.5V2H2c-.55 0-1 .45-1 1v11c0 .55.45 1 1 1h11c.55 0 1-.45 1-1V3c0-.55-.45-1-1-1m0 12H2V5h11zM5 3H4V1h1zm6 0h-1V1h1zM6 7H5V6h1zm2 0H7V6h1zm2 0H9V6h1zm2 0h-1V6h1zM4 9H3V8h1zm2 0H5V8h1zm2 0H7V8h1zm2 0H9V8h1zm2 0h-1V8h1zm-8 2H3v-1h1zm2 0H5v-1h1zm2 0H7v-1h1zm2 0H9v-1h1zm2 0h-1v-1h1zm-8 2H3v-1h1zm2 0H5v-1h1zm2 0H7v-1h1zm2 0H9v-1h1z"/></symbol><symbol id="icon-captain" viewBox="0 0 15 20"><path fill="#4d4d4d" d="M0 0h15v20H0z"/><path fill="#fff" d="M6.065 13.581q.617 1.158 1.568 1.158.975 0 1.486-.993.284-.534.47-1.603h1.882q-.244 2.258-1.244 3.675-1.002 1.415-2.566 1.415-1.935 0-3.042-1.913Q3.51 13.4 3.51 10.052q0-3.619 1.26-5.577 1.096-1.707 2.787-1.706 2.265 0 3.31 2.287.579 1.284.621 2.578H9.596q-.182-.994-.464-1.5-.506-.9-1.5-.9-1.014 0-1.598 1.27T5.449 10.1t.616 3.482"/></symbol><symbol id="icon-card_r" viewBox="0 0 20 20"><defs><clipPath id="icon-card_r-a"><path d="M0 0h20v20H0z"/></clipPath></defs><g clip-path="url(#icon-card_r-a)"><path fill="#f44336" d="M4 1.5h12v17H4z"/></g></symbol><symbol id="icon-card_y" viewBox="0 0 20 20"><defs><clipPath id="icon-card_y-a"><path d="M0 0h20v20H0z"/></clipPath></defs><g clip-path="url(#icon-card_y-a)"><path fill="#ffeb3b" d="M4 1.5h12v17H4z"/></g></symbol><symbol id="icon-card_yr" viewBox="0 0 20 20"><defs><clipPath id="icon-card_yr-a"><path d="M0 0h20v20H0z"/></clipPath></defs><g clip-path="url(#icon-card_yr-a)"><path fill="#ffeb3b" d="M1 3h12v17H1z"/><path fill="#f44336" d="M7 0h12v17H7z"/></g></symbol><symbol id="icon-chevron-down" viewBox="0 0 24 24"><path d="m6 9 6 6 6-6"/></symbol><symbol id="icon-clock-alt" viewBox="0 0 24 24"><circle cx="12" cy="12" r="10"/><path d="M12 6v6l4 2"/></symbol><symbol id="icon-clock" viewBox="0 0 14 16"><path fill-rule="evenodd" d="M8 8h3v2H7c-.55 0-1-.45-1-1V4h2zM7 2.3c3.14 0 5.7 2.56 5.7 5.7s-2.56 5.7-5.7 5.7A5.71 5.71 0 0 1 1.3 8c0-3.14 2.56-5.7 5.7-5.7M7 1C3.14 1 0 4.14 0 8s3.14 7 7 7 7-3.14 7-7-3.14-7-7-7"/></symbol><symbol id="icon-eye" viewBox="0 0 16 16"><path fill-rule="evenodd" d="M8.06 2C3 2 0 8 0 8s3 6 8.06 6C13 14 16 8 16 8s-3-6-7.94-6M8 12c-2.2 0-4-1.78-4-4 0-2.2 1.8-4 4-4 2.22 0 4 1.8 4 4 0 2.22-1.78 4-4 4m2-4c0 1.11-.89 2-2 2s-2-.89-2-2 .89-2 2-2 2 .89 2 2"/></symbol><symbol id="icon-facebook" viewBox="0 0 30 30"><g clip-path="url(#icon-facebook-a)"><path fill="#1877f2" d="M25.5 0h-21A4.5 4.5 0 0 0 0 4.5v21A4.5 4.5 0 0 0 4.5 30h21a4.5 4.5 0 0 0 4.5-4.5v-21A4.5 4.5 0 0 0 25.5 0"/><path fill="#fff" d="M20.836 19.336 21.504 15h-4.16v-2.812c0-1.184.58-2.344 2.443-2.344h1.893V6.152s-1.717-.293-3.358-.293c-3.427 0-5.666 2.075-5.666 5.836V15H8.848v4.336h3.808V30h4.688V19.336z"/></g><defs><clipPath id="icon-facebook-a"><path fill="#fff" d="M0 0h30v30H0z"/></clipPath></defs></symbol><symbol id="icon-field-shirt-in" viewBox="0 0 17 20"><g clip-path="url(#icon-field-shirt-in-a)"><path fill="#fff" d="M17 0v20H0V0z"/><path fill="#57a455" d="M17 0v20H0V0z"/><path stroke="#99c297" d="M12 18.5h.5v-3h-8v3H12ZM12 4.5h.5v-3h-8v3H12Z"/><path stroke="#99c297" d="M15 18.5h.5v-17h-14v17H15Z"/><path fill="#fff" d="M9.106 11a.2.2 0 0 0-.094.03L7.1 12.228a.226.226 0 0 0-.073.295l.651 1.226c.055.104.177.139.272.08l1-.628v4.581c0 .12.089.217.2.217h3.691c.11 0 .2-.097.2-.217v-4.587l1.009.633c.095.06.216.025.272-.079l.651-1.226a.226.226 0 0 0-.073-.295l-1.912-1.2a.2.2 0 0 0-.123-.027L12.841 11h-1.058c-.015.136-.36.246-.783.246s-.768-.11-.783-.246H9.149l-.019.001z"/><path fill="#fff" fill-rule="evenodd" d="M9.8 6.9H15V4.1H9.8V2L2 5.5 9.8 9z" clip-rule="evenodd"/></g><defs><clipPath id="icon-field-shirt-in-a"><path fill="#fff" d="M17 0v20H0V0z"/></clipPath></defs></symbol><symbol id="icon-field-shirt" viewBox="0 0 17 20"><g clip-path="url(#icon-field-shirt-a)"><path fill="#fff" d="M17 0v20H0V0z"/><path fill="#57a455" d="M17 0v20H0V0z"/><path stroke="#99c297" d="M12 18.5h.5v-3h-8v3H12ZM12 4.5h.5v-3h-8v3H12Z"/><path stroke="#99c297" d="M15 18.5h.5v-17h-14v17H15Z"/><path fill="#fff" d="M5.423 8a.3.3 0 0 0-.154.046L2.162 9.93a.35.35 0 0 0-.118.464l1.058 1.926c.09.164.287.219.442.125l1.624-.985v7.199c0 .188.145.34.324.34h6c.179 0 .323-.152.323-.34v-7.21l1.641.996a.314.314 0 0 0 .442-.124l1.058-1.927a.35.35 0 0 0-.118-.464l-3.107-1.885a.3.3 0 0 0-.2-.043L11.49 8H9.774c-.025.214-.586.386-1.273.386S7.252 8.214 7.227 8H5.492l-.03.002z"/></g><defs><clipPath id="icon-field-shirt-a"><path fill="#fff" d="M17 0v20H0V0z"/></clipPath></defs></symbol><symbol id="icon-field" viewBox="0 0 17 20"><g clip-path="url(#icon-field-a)"><path fill="#fff" d="M17 0v20H0V0z"/><path fill="#57a455" d="M17 0v20H0V0z"/><path stroke="#99c297" d="M12 18.5h.5v-3h-8v3H12ZM12 4.5h.5v-3h-8v3H12Z"/><path stroke="#99c297" d="M15 18.5h.5v-17h-14v17H15Z"/></g><defs><clipPath id="icon-field-a"><path fill="#fff" d="M17 0v20H0V0z"/></clipPath></defs></symbol><symbol id="icon-instagram" viewBox="0 0 30 30"><path fill="#d43377" d="M25.5 0h-21A4.5 4.5 0 0 0 0 4.5v21A4.5 4.5 0 0 0 4.5 30h21a4.5 4.5 0 0 0 4.5-4.5v-21A4.5 4.5 0 0 0 25.5 0"/><path stroke="#fff" stroke-width="1.699" d="M19.102 6.328h-8.204a4.57 4.57 0 0 0-4.57 4.57v8.204a4.57 4.57 0 0 0 4.57 4.57h8.204a4.57 4.57 0 0 0 4.57-4.57v-8.204a4.57 4.57 0 0 0-4.57-4.57Z"/><path stroke="#fff" stroke-width="1.699" d="M15 19.043a4.043 4.043 0 1 0 0-8.086 4.043 4.043 0 0 0 0 8.086Z"/><path fill="#fff" d="M20.098 11.016a1.113 1.113 0 1 0 0-2.227 1.113 1.113 0 0 0 0 2.227"/></symbol><symbol id="icon-linkedin" viewBox="0 0 30 30"><g clip-path="url(#icon-linkedin-a)"><path fill="#0077b5" d="M25.5 0h-21A4.5 4.5 0 0 0 0 4.5v21A4.5 4.5 0 0 0 4.5 30h21a4.5 4.5 0 0 0 4.5-4.5v-21A4.5 4.5 0 0 0 25.5 0"/><path fill="#fff" d="M8.32 10.254a2.168 2.168 0 1 0 0-4.336 2.168 2.168 0 0 0 0 4.336M14.297 11.367V22.97Zm-5.977 0V22.97Z"/><path stroke="#fff" stroke-width="3.867" d="M14.297 11.367V22.97M8.32 11.367V22.97"/><path fill="#fff" d="M16.172 16.523c0-1.171.762-2.343 2.11-2.343 1.406 0 1.933 1.054 1.933 2.636v6.153h3.867v-6.621c0-3.575-1.875-5.215-4.453-5.215-1.992 0-2.988 1.113-3.457 1.875"/></g><defs><clipPath id="icon-linkedin-a"><path fill="#fff" d="M0 0h30v30H0z"/></clipPath></defs></symbol><symbol id="icon-location" viewBox="0 0 12 16"><path fill-rule="evenodd" d="M6 0C2.69 0 0 2.5 0 5.5 0 10.02 6 16 6 16s6-5.98 6-10.5C12 2.5 9.31 0 6 0m0 14.55C4.14 12.52 1 8.44 1 5.5 1 3.02 3.25 1 6 1c1.34 0 2.61.48 3.56 1.36.92.86 1.44 1.97 1.44 3.14 0 2.94-3.14 7.02-5 9.05M8 5.5c0 1.11-.89 2-2 2s-2-.89-2-2 .89-2 2-2 2 .89 2 2"/></symbol><symbol id="icon-plus-circle" viewBox="0 0 24 24"><path d="M12.75 7.75a.75.75 0 0 0-1.5 0v3.5h-3.5a.75.75 0 0 0 0 1.5h3.5v3.5a.75.75 0 0 0 1.5 0v-3.5h3.5a.75.75 0 0 0 0-1.5h-3.5z"/><path fill-rule="evenodd" d="M12 1C5.925 1 1 5.925 1 12s4.925 11 11 11 11-4.925 11-11S18.075 1 12 1M2.5 12a9.5 9.5 0 1 1 19 0 9.5 9.5 0 0 1-19 0"/></symbol><symbol id="icon-question" viewBox="0 0 24 24"><path d="M10.97 8.265a1.45 1.45 0 0 0-.487.57.75.75 0 0 1-1.341-.67c.2-.402.513-.826.997-1.148C10.627 6.69 11.244 6.5 12 6.5c.658 0 1.369.195 1.934.619a2.45 2.45 0 0 1 1.004 2.006c0 1.033-.513 1.72-1.027 2.215-.19.183-.399.358-.579.508l-.147.123a4 4 0 0 0-.435.409v1.37a.75.75 0 1 1-1.5 0v-1.473c0-.237.067-.504.247-.736.22-.28.486-.517.718-.714l.183-.153.001-.001c.172-.143.324-.27.47-.412.368-.355.569-.676.569-1.136a.95.95 0 0 0-.404-.806C12.766 8.118 12.384 8 12 8c-.494 0-.814.121-1.03.265M13 17a1 1 0 1 1-2 0 1 1 0 0 1 2 0"/><path fill-rule="evenodd" d="M12 1C5.925 1 1 5.925 1 12s4.925 11 11 11 11-4.925 11-11S18.075 1 12 1M2.5 12a9.5 9.5 0 1 1 19 0 9.5 9.5 0 0 1-19 0"/></symbol><symbol id="icon-stadium" viewBox="0 0 23 14"><path fill="#b7b7b7" d="M1.725 0C.774 0 0 .725 0 1.615v10.77C0 13.275.774 14 1.725 14h19.55c.951 0 1.725-.725 1.725-1.615V1.615C23 .725 22.226 0 21.275 0zm9.2 9.638c-1.31-.25-2.3-1.338-2.3-2.638s.99-2.388 2.3-2.638zm1.15-5.276c1.31.25 2.3 1.338 2.3 2.638s-.99 2.388-2.3 2.638zM1.15 4.308h2.3v5.384h-2.3zm0 8.077v-1.616h2.875c.318 0 .575-.24.575-.538V3.769c0-.297-.257-.538-.575-.538H1.15V1.615c0-.297.258-.538.575-.538h9.2V3.27c-1.948.262-3.45 1.835-3.45 3.73s1.502 3.468 3.45 3.73v2.193h-9.2c-.317 0-.575-.242-.575-.538m20.7-2.693h-2.3V4.308h2.3zm0-8.077v1.616h-2.875c-.318 0-.575.24-.575.538v6.462c0 .297.258.538.575.538h2.875v1.616c0 .297-.258.538-.575.538h-9.2V10.73c1.948-.262 3.45-1.835 3.45-3.73s-1.502-3.468-3.45-3.73V1.077h9.2c.317 0 .575.241.575.538"/></symbol><symbol id="icon-substitute" viewBox="0 0 20 20"><path fill="#d51818" d="M17.72 11.745a.92.92 0 0 0-.673-.294H12.29c-.524 0-.95.446-.95.996v.845c0 .265.099.521.279.71s.418.298.67.298h1.26c-1.116 1.14-2.65 1.857-4.258 1.857-2.54 0-4.81-1.69-5.648-4.201-.19-.571-.706-.956-1.283-.956a1.3 1.3 0 0 0-.45.08 1.37 1.37 0 0 0-.775.726c-.157.343-.178.73-.058 1.088C2.297 16.546 5.592 19 9.286 19c2.267 0 4.365-.888 5.996-2.508v.935c0 .55.438 1.005.962 1.005h.806c.525 0 .95-.455.95-1.005V12.45a1 1 0 0 0-.28-.705"/><path fill="#058f2f" d="M2.28 9.162c.18.213.419.33.673.33H7.71c.524 0 .95-.501.95-1.12v-.95c0-.3-.099-.587-.279-.8-.18-.211-.418-.335-.67-.335H6.45c1.116-1.282 2.65-2.088 4.258-2.088 2.54 0 4.81 1.901 5.648 4.726.19.642.707 1.075 1.283 1.075q.23 0 .45-.09c.342-.141.617-.431.775-.816.157-.386.178-.821.058-1.225C17.703 3.76 14.408 1 10.714 1c-2.267 0-4.365.999-5.996 2.821V2.769c0-.618-.438-1.13-.962-1.13H2.95c-.525 0-.95.512-.95 1.13v5.6c0 .299.099.58.28.793"/></symbol><symbol id="icon-tiktok" viewBox="0 0 30 30"><path fill="#fff" d="M0 0h30v30H0"/><path fill="#f05" d="M13.887 12.598a6.855 6.855 0 1 0 5.918 6.738v-7.5a8.8 8.8 0 0 0 5.156 1.64v-3.69a5.156 5.156 0 0 1-5.156-5.157h-3.75v14.766a3.164 3.164 0 1 1-2.168-2.989"/><path fill="#0ee" d="M12.832 11.719a6.855 6.855 0 1 0 5.918 6.738v-7.5a8.8 8.8 0 0 0 5.156 1.64v-3.69A5.156 5.156 0 0 1 18.75 3.75H15v14.766a3.164 3.164 0 1 1-2.168-2.989" style="mix-blend-mode:multiply"/></symbol><symbol id="icon-twitter" viewBox="0 0 30 30"><path fill="#000" d="M17.856 12.705 29.022 0h-2.644l-9.7 11.026L8.933 0H0l11.711 16.673L0 30h2.644L12.89 18.351 21.067 30H30zM3.6 1.945h4.067l18.71 26.188h-4.066z"/></symbol><symbol id="icon-vk" viewBox="0 0 30 30"><g clip-path="url(#icon-vk-a)"><path fill="#5281b8" d="M25.5 0h-21A4.5 4.5 0 0 0 0 4.5v21A4.5 4.5 0 0 0 4.5 30h21a4.5 4.5 0 0 0 4.5-4.5v-21A4.5 4.5 0 0 0 25.5 0"/><path fill="#fff" d="M16.055 21.27c.293-.06.82-.176.82-.88 0 0-.059-1.757.762-1.992.82-.234 1.875 1.7 2.988 2.461.82.528 1.465.47 1.465.47l2.988-.06s1.524-.117.82-1.347c-.058-.117-.527-.879-2.285-2.461-1.816-1.758-1.523-1.465.645-4.453q2.021-2.725 1.758-3.34c-.235-.41-1.172-.352-1.172-.352h-3.34c-.352 0-.527.059-.703.352 0 0-.528 1.465-1.23 2.637-1.466 2.52-2.052 2.636-2.344 2.46-.528-.292-.41-1.406-.41-2.167 0-2.637.41-3.575-.762-3.809-.762-.117-3.457-.234-4.278.176-.41.234-.644.644-.468.703.175 0 .703.059.996.41.468.762.527 4.395-.117 4.746-.88.645-3.106-3.633-3.633-5.039-.117-.351-.293-.41-.703-.527H4.629c-.352 0-.879.058-.645.762 1.582 3.28 4.864 11.308 10.782 11.25z"/></g><defs><clipPath id="icon-vk-a"><path fill="#fff" d="M0 0h30v30H0z"/></clipPath></defs></symbol><symbol id="icon-watch" viewBox="0 0 12 16"><path fill-rule="evenodd" d="M6 8h2v1H5V5h1zm6 0c0 2.22-1.2 4.16-3 5.19V15c0 .55-.45 1-1 1H4c-.55 0-1-.45-1-1v-1.81C1.2 12.16 0 10.22 0 8s1.2-4.16 3-5.19V1c0-.55.45-1 1-1h4c.55 0 1 .45 1 1v1.81c1.8 1.03 3 2.97 3 5.19m-1 0c0-2.77-2.23-5-5-5S1 5.23 1 8s2.23 5 5 5 5-2.23 5-5"/></symbol><symbol id="icon-whistle" viewBox="0 0 64.002 64.002"><path d="M63.002 22.988H23.938c-.108 0-.207.03-.305.061-6.527.394-12.219 3.902-15.596 9.073a5 5 0 0 0-1.069-.642 4.98 4.98 0 0 0-6.55 2.569 4.94 4.94 0 0 0-.071 3.807A4.94 4.94 0 0 0 2.989 40.6c.598.26 1.241.39 1.888.404a20 20 0 0 0-.105 2.061c0 11.07 9.006 20.077 20.077 20.077 11.07 0 20.077-9.006 20.077-20.077 0-2.961-.653-5.881-1.901-8.539h19.979a1 1 0 0 0 1-1v-9.538c-.002-.552-.45-1-1.002-1m-35.064 2v4.652c0 .164-.22.348-.515.348h-1.97c-.294 0-.515-.184-.515-.348v-4.652zM4.759 39.006a3 3 0 0 1-.973-.24 2.95 2.95 0 0 1-1.578-1.64 2.96 2.96 0 0 1 .043-2.277 2.98 2.98 0 0 1 3.915-1.536c.31.136.593.322.838.55l-.184.422a20 20 0 0 0-.704 1.612zm35.749-4.979a18.1 18.1 0 0 1 2.417 9.038c0 9.967-8.109 18.077-18.077 18.077S6.771 53.033 6.771 43.065c0-2.252.433-4.4 1.188-6.391l.702-1.608c2.689-5.418 8.001-9.312 14.276-9.974v4.548c0 1.295 1.128 2.348 2.515 2.348h1.97c1.387 0 2.515-1.053 2.515-2.348v-4.652h25.295v7.538H41.373a1 1 0 0 0-.865 1.501m21.494-1.501h-4.769v-7.538h4.769zM19.247 18.312a1 1 0 1 0 1.664-1.11l-6.359-9.539a1 1 0 1 0-1.664 1.11zM32.796 18.757a1 1 0 0 0 .833-.445l6.359-9.539a1 1 0 0 0-1.664-1.11l-6.359 9.539a1.001 1.001 0 0 0 .831 1.555M26.438 15.578a1 1 0 0 0 1-1V1.86a1 1 0 0 0-2 0v12.718a1 1 0 0 0 1 1"/><path d="M17.641 34.746c-2.86.753-5.004 3.271-5.594 6.573-.65 3.634.762 7.164 3.686 9.213a.999.999 0 1 0 1.148-1.638c-2.723-1.909-3.265-4.983-2.864-7.224.452-2.526 2.036-4.438 4.134-4.99a1.001 1.001 0 0 0-.51-1.934"/></symbol><symbol id="icon-world-flag" viewBox="0 0 50 30"><g clip-path="url(#icon-world-flag-a)"><path fill="#f1f1f1" d="M0 0h50v30H0z"/><g clip-path="url(#icon-world-flag-b)"><path fill="#86b6ee" d="M25 28c7.18 0 13-5.82 13-13S32.18 2 25 2 12 7.82 12 15s5.82 13 13 13"/><path fill="#666" d="M13.85 16.74c.257.012.48-.305.74-1.105.165-.5.641-.831 1.168-.812 0 0 .469.609.584 3.02.122 2.585 1.033 1.666 1.265 2.707.412 1.855 1.157 2.146 1.859 2.79.702.642 1.381-.875 1.86-2.79.477-1.916 1.023-1.15 1.859-1.86.835-.71.668-1.371 1.86-1.859 1.19-.488.904.035.93-.93.015-.631.116-1.253.312-1.396.54-.393.457-.482.617-1.394.16-.91-2.2-1.892-1.86-2.789a2.58 2.58 0 0 0 0-1.86s-1.056-.51-1.859 1.86c-.44 1.293-.778-.578-.93-.93-.152-.351 0-1.86 0-1.86-1.308-.475-.657.477-1.86 0-1.2-.475-1.573-.448-.929-1.859 0 0 .35-1.478-.61-2.13a13 13 0 0 0-6.852 11.295c.522.794 1.328 1.88 1.845 1.903M33.72 5.36c.15.535.389 1.38.623 2.173.381 1.286.023 2.153 0 2.79-.023.635.957 2.86.93 2.788.337.233.586.572.708.962.048.79 1.165 1.04 1.997 1.666q.02-.367.022-.74a12.97 12.97 0 0 0-4.28-9.64M26.905 5.673c1.753.293 2.716 1.013 3.623 1.104.805.081.02-1.146-.681-2.06a2.75 2.75 0 0 1-.443-1.95 13 13 0 0 0-3.782-.751c.452.555 1.105 1.195 1.194 1.496.129.438-1.156 1.953.089 2.16M37.332 19.113c-.491-.596-1.61-1.84-2.06-1.352-.605.657-.04 2.782-.929 2.789-.89.007-2.208.894-2.9 2.304-.673 1.37-2.957.835-2.795 4.623a13.03 13.03 0 0 0 8.684-8.364"/></g><path stroke="#cfcfcf" d="M0 .5h50M0 29.5h50M.5 1v28M49.5 1v28"/></g><defs><clipPath id="icon-world-flag-a"><path fill="#fff" d="M0 0h50v30H0z"/></clipPath><clipPath id="icon-world-flag-b"><path fill="#fff" d="M12 2h26v26H12z"/></clipPath></defs></symbol><symbol id="icon-x-circle" viewBox="0 0 24 24"><path d="M9.036 7.976a.75.75 0 0 0-1.06 1.06L10.939 12l-2.963 2.963a.75.75 0 1 0 1.06 1.06L12 13.06l2.963 2.964a.75.75 0 0 0 1.061-1.06L13.061 12l2.963-2.964a.75.75 0 1 0-1.06-1.06L12 10.939z"/><path fill-rule="evenodd" d="M12 1C5.925 1 1 5.925 1 12s4.925 11 11 11 11-4.925 11-11S18.075 1 12 1M2.5 12a9.5 9.5 0 1 1 19 0 9.5 9.5 0 0 1-19 0"/></symbol><symbol id="icon-youtube" viewBox="0 0 30 30"><g clip-path="url(#icon-youtube-a)"><path fill="#ed1d24" d="M25.5 0h-21A4.5 4.5 0 0 0 0 4.5v21A4.5 4.5 0 0 0 4.5 30h21a4.5 4.5 0 0 0 4.5-4.5v-21A4.5 4.5 0 0 0 25.5 0"/><path fill="#fff" d="M25.02 9.902c-.235-.879-.997-1.582-1.875-1.816-1.993-.527-14.004-.586-16.29 0-.878.234-1.64.937-1.875 1.816-.527 2.227-.585 7.91 0 10.196.235.879.997 1.582 1.875 1.816 2.11.586 14.122.586 16.29 0 .878-.234 1.64-.937 1.875-1.816.527-2.11.527-8.028 0-10.196"/><path fill="#ed1d24" d="M12.89 11.895v6.21L18.34 15"/></g><defs><clipPath id="icon-youtube-a"><path fill="#fff" d="M0 0h30v30H0z"/></clipPath></defs></symbol></svg>