<svg xmlns="http://www.w3.org/2000/svg" xmlns:xlink="http://www.w3.org/1999/xlink" style="position:absolute;left: -100%;" height="0" width="0"><defs>
        <clipPath id="clip0_720_24">
            <rect width="20" height="20" fill="none"/>
        </clipPath>
    
        <clipPath id="clip0_721_46">
            <rect width="20" height="20" fill="none"/>
        </clipPath>
    <clipPath id="_clipPath_YMD6bUwfXAROXtjMijCQ1ndynkGS9MPU"><rect width="20" height="20"/></clipPath><clipPath id="_clipPath_sSTLzZ203PihI8dx6z2pgoUhynJKEvII"><rect width="20" height="20"/></clipPath><clipPath id="_clipPath_HLHsSl0jVqEdtaYK0F7xAc9emc9wbwf1"><rect width="20" height="20"/></clipPath>
<clipPath id="clip0_4_13">
<rect width="30" height="30" fill="white"/>
</clipPath>

<clipPath id="clip0">
<rect width="20" height="17" fill="white" transform="translate(17) rotate(90)"/>
</clipPath>

<clipPath id="clip0">
<rect width="20" height="17" fill="white" transform="translate(17) rotate(90)"/>
</clipPath>

<clipPath id="clip0">
<rect width="20" height="17" fill="white" transform="translate(17) rotate(90)"/>
</clipPath>

<clipPath id="clip0_4_59">
<rect width="30" height="30" fill="white"/>
</clipPath>

<clipPath id="clip0_3_10">
<rect width="30" height="30" fill="white"/>
</clipPath>

<clipPath id="clip0_123_2">
<rect width="50" height="30" fill="white"/>
</clipPath>
<clipPath id="clip1_123_2">
<rect width="26" height="26" fill="white" transform="translate(12 2)"/>
</clipPath>

<clipPath id="clip0_3_6">
<rect width="30" height="30" fill="white"/>
</clipPath>
</defs><symbol id="icon-arrow-bottom" viewBox="0 0 32 32"><g fill="none" stroke="currentcolor" stroke-linecap="round" stroke-linejoin="round" stroke-width="2">
    <path d="M6 22 L16 30 26 22 M16 30 L16 2"/>
</g></symbol><symbol id="icon-arrow-left" viewBox="0 0 32 32"><g fill="none" stroke="currentcolor" stroke-linecap="round" stroke-linejoin="round" stroke-width="2">
    <path d="M10 6 L2 16 10 26 M2 16 L30 16"/>
</g></symbol><symbol id="icon-arrow-o-down" viewBox="0 0 10 16">
    <g stroke="none" stroke-width="1" fill-rule="evenodd">
        <polygon id="Shape" points="7 7 7 3 3 3 3 7 0 7 5 13 10 7"/>
    </g>
</symbol><symbol id="icon-arrow-o-up" viewBox="0 0 10 16">
    <g stroke="none" stroke-width="1" fill-rule="evenodd">
        <polygon id="Shape" points="5 3 0 9 3 9 3 13 7 13 7 9 10 9"/>
    </g>
</symbol><symbol id="icon-arrow-right" viewBox="0 0 32 32"><g fill="none" stroke="currentcolor" stroke-linecap="round" stroke-linejoin="round" stroke-width="2">
    <path d="M22 6 L30 16 22 26 M30 16 L2 16"/>
</g></symbol><symbol id="icon-arrow-top" viewBox="0 0 32 32"><g fill="none" stroke="currentcolor" stroke-linecap="round" stroke-linejoin="round" stroke-width="2">
    <path d="M6 10 L16 2 26 10 M16 2 L16 30"/>
</g></symbol><symbol id="icon-assist" viewBox="0 0 20 11"><g fill="none">
    <rect x="2.50768" y="8.81286" width="1.66289" height="1.94575" rx="0.241388" stroke="black" stroke-width="0.482776"/>
    <rect x="17.6539" y="8.81286" width="1.66289" height="1.94575" rx="0.241388" stroke="black" stroke-width="0.482776"/>
    <rect x="7.05132" y="8.81286" width="1.66289" height="1.94575" rx="0.241388" stroke="black" stroke-width="0.482776"/>
    <path d="M2.69325 8.87452C1.86766 8.44658 0.982935 7.72495 0.667106 6.89104C0.51723 6.49531 0.491996 6.06871 0.668652 5.60118C0.849765 5.12185 1.25925 4.55841 2.0555 3.93849C2.06538 3.93079 2.08077 3.92273 2.0959 3.91845L13.3947 0.721395C13.4306 0.711226 13.4705 0.715023 13.512 0.739006C13.5555 0.764112 13.593 0.807861 13.6108 0.863411C13.9263 1.84829 14.4917 2.98738 15.3856 3.63551C15.8468 3.96984 16.4002 4.17605 17.0356 4.14931C17.6644 4.12284 18.3209 3.87055 19.001 3.38291C19.0826 3.32439 19.2079 3.30997 19.3224 3.35787C19.4305 3.4031 19.4547 3.46644 19.4547 3.51512V8.74701C19.4547 8.8223 19.3937 8.88333 19.3184 8.88333H2.73838C2.71469 8.88333 2.70042 8.87824 2.69326 8.87452L2.44233 9.35862L2.69325 8.87452Z" stroke="black" stroke-width="1.09053"/>
    <path d="M9.39758 1.71436L11.5433 9" stroke="black" stroke-width="0.944433"/>
    <path d="M7 2L9.14569 9.28564" stroke="black" stroke-width="0.944433"/>
</g></symbol><symbol id="icon-ball" viewBox="0 0 20 20"><path d="M0 9.984c0 5.519 4.481 10 10 10s10-4.481 10-10c0-5.52-4.481-10-10-10s-10 4.48-10 10zm7.53-.219l-2.318 2.106 1.045 3.951 3.165 1.097 3.102-2.884-1.189-2.935L7.53 9.765zM3.199 4.091a8.987 8.987 0 0 1 6.184-3.087l.145.771-3.421 3.601-2.167.122-.741-1.407zm4.466 4.661L6.95 5.939l3.189-3.355c.69.059 1.515.275 2.353.646.381.169.737.357 1.06.557l.336 4.472-2.181 1.911-4.042-1.418zM2.529 4.966A8.949 8.949 0 0 0 1.001 9.86l1.128-.335.883-3.643-.483-.916zM1.045 10.89a8.99 8.99 0 0 0 3.473 6.229l.768-1.06-1.081-4.083-1.694-1.521-1.466.435zm9.161 8.091a8.975 8.975 0 0 0 6.404-2.893l-.845-1.485-2.387.004-3.34 3.104.168 1.27zm8.701-10.296a8.985 8.985 0 0 0-2.935-5.432l-1.407.668.315 4.195 2.135 1.662 1.892-1.093zm.091 1.103l.002.196a8.96 8.96 0 0 1-1.71 5.276l-.712-1.25.997-3.401 1.423-.821z" fill-rule="evenodd"/></symbol><symbol id="icon-ball_canceled" viewBox="0 0 20 20"><g fill="none">
    <g clip-path="url(#clip0_720_24)">
        <rect width="20" height="20" fill="white"/>
        <path fill-rule="evenodd" clip-rule="evenodd" d="M19 10C19 14.9706 14.9706 19 10 19C5.02944 19 1 14.9706 1 10C1 5.02944 5.02944 1 10 1C14.9706 1 19 5.02944 19 10ZM20 10C20 15.5228 15.5228 20 10 20C4.47715 20 0 15.5228 0 10C0 4.47715 4.47715 0 10 0C15.5228 0 20 4.47715 20 10ZM4.55622 12.1302L7.45562 9.40828V9.23077L6.56805 5.44379L2.95858 5.97633C2.27609 7.36598 2.0592 8.21498 1.89349 9.82248C2.79681 10.8608 3.38472 11.3611 4.55622 12.1302Z" fill="#7F7E7E"/>
        <path d="M12.0118 10.7692C12.9708 9.66895 13.5962 9.10606 14.9112 8.22485C15.9396 8.56919 16.5224 9.01307 17.574 10.2959C17.3812 11.9112 17.0978 12.7905 16.3314 14.3195C15.0899 14.6699 14.3475 14.7453 12.8994 14.5562L12.0118 10.7692Z" fill="#7F7E7E" stroke="#7F7E7E"/>
        <path d="M9.88164 2.72189L9.40826 0.887573C12.1098 1.01856 13.4762 1.4448 15.6213 2.89941L13.9053 4.08284C12.5318 3.14678 11.6615 2.82692 9.88164 2.72189Z" fill="#7F7E7E" stroke="#7F7E7E"/>
        <path d="M5.56212 15.9763L4.5 17C6.58926 18.4223 7.83674 18.9303 10.2367 19.1716L9.58579 17.4556C7.87997 17.4164 7.00852 17.0543 5.56212 15.9763Z" fill="#7F7E7E" stroke="#7F7E7E"/>
        <line x1="1.06066" y1="0.93934" x2="19.0607" y2="18.9393" stroke="#D51818" stroke-width="3"/>
        <line x1="19.0607" y1="1.06066" x2="1.06066" y2="19.0607" stroke="#D51818" stroke-width="3"/>
    </g>
    
</g></symbol><symbol id="icon-ball_dual" viewBox="0 0 20 20"><g fill="none">
    <circle cx="10" cy="10" r="10" fill="#CCCCCC"/>
    <circle cx="10" cy="10" r="9" fill="black"/>
    <path fill-rule="evenodd" clip-rule="evenodd" d="M7.52998 9.765L5.21198 11.871L6.25698 15.822L9.42198 16.919L12.524 14.035L11.335 11.1L7.52998 9.765ZM3.19898 4.091C3.975 3.19377 4.92097 2.45906 5.98234 1.92923C7.04371 1.39941 8.19948 1.08495 9.38298 1.004L9.52798 1.775L6.10698 5.376L3.93998 5.498L3.19898 4.091ZM7.66498 8.752L6.94998 5.939L10.139 2.584C10.829 2.643 11.654 2.859 12.492 3.23C12.873 3.399 13.229 3.587 13.552 3.787L13.888 8.259L11.707 10.17L7.66498 8.752ZM2.49998 5C1.52424 6.4474 1.0221 8.11455 1.00098 9.86L2.12898 9.525L3.01198 5.882L2.49998 5ZM1.04498 10.89C1.16835 12.1103 1.5401 13.2924 2.13737 14.3636C2.73465 15.4349 3.5448 16.3725 4.51798 17.119L5.28598 16.059L4.20498 11.976L2.51098 10.455L1.04498 10.89ZM10.206 18.981C11.4131 18.9544 12.6025 18.6844 13.7029 18.1873C14.8033 17.6902 15.792 16.9762 16.61 16.088L15.765 14.603L13.378 14.607L10.038 17.711L10.206 18.981ZM18.907 8.685C18.601 6.58449 17.5612 4.66013 15.972 3.253L14.565 3.921L14.88 8.116L17.015 9.778L18.907 8.685ZM18.998 9.788L19 9.984C19.0023 11.8793 18.4036 13.7264 17.29 15.26L16.578 14.01L17.575 10.609L18.998 9.788Z" fill="white"/>
</g></symbol><symbol id="icon-ball_dual2" viewBox="0 0 20 20"><g fill="none">
<circle cx="10" cy="10" r="10" fill="white"/>
<path fill-rule="evenodd" clip-rule="evenodd" d="M1 10C1 14.9671 5.0329 19 10 19C14.9671 19 19 14.9671 19 10C19 5.032 14.9671 1 10 1C5.0329 1 1 5.032 1 10ZM7.777 9.8029L5.6908 11.6983L6.6313 15.2542L9.4798 16.2415L12.2716 13.6459L11.2015 11.0044L7.777 9.8029ZM3.8791 4.6963C4.57752 3.8888 5.4289 3.22756 6.38413 2.75071C7.33936 2.27387 8.37955 1.99086 9.4447 1.918L9.5752 2.6119L6.4963 5.8528L4.546 5.9626L3.8791 4.6963ZM7.8985 8.8912L7.255 6.3595L10.1251 3.34C10.7461 3.3931 11.4886 3.5875 12.2428 3.9214C12.5857 4.0735 12.9061 4.2427 13.1968 4.4227L13.4992 8.4475L11.5363 10.1674L7.8985 8.8912ZM3.2761 5.4838C2.39793 6.78646 1.91991 8.3175 1.9009 9.8884L2.9161 9.5869L3.7108 6.3082L3.2761 5.4838ZM1.9405 10.8154C2.05153 11.9136 2.38612 12.9775 2.92366 13.9417C3.4612 14.9058 4.19034 15.7497 5.0662 16.4215L5.7574 15.4675L4.7845 11.7928L3.2599 10.4239L1.9405 10.8154ZM10.1854 18.0973C11.2718 18.0733 12.3423 17.8304 13.3326 17.383C14.323 16.9356 15.2128 16.293 15.949 15.4936L15.1885 14.1571L13.0402 14.1607L10.0342 16.9543L10.1854 18.0973ZM18.0163 8.8309C17.7409 6.94044 16.8051 5.20852 15.3748 3.9421L14.1085 4.5433L14.392 8.3188L16.3135 9.8146L18.0163 8.8309ZM18.0982 9.8236L18.1 10C18.1021 11.7057 17.5633 13.3682 16.561 14.7484L15.9202 13.6234L16.8175 10.5625L18.0982 9.8236Z" fill="black"/>
</g></symbol><symbol id="icon-ball_penalty" viewBox="0 0 20 20"><g fill="none">
    <g clip-path="url(#clip0_721_46)">
        <circle cx="10" cy="10" r="9.5" stroke="#129E27"/>
        <path d="M7.45562 9.40828L4.55622 12.1302C3.38472 11.3611 2.79681 10.8608 1.89349 9.82248C2.0592 8.21498 2.27609 7.36598 2.95858 5.97633L6.56805 5.44379L7.45562 9.23077V9.40828Z" fill="#129E27"/>
        <path d="M6.56805 5.44379L7.45562 9.23077V9.40828L4.55622 12.1302C3.38472 11.3611 2.79681 10.8608 1.89349 9.82248C2.0592 8.21498 2.27609 7.36598 2.95858 5.97633L6.56805 5.44379ZM6.56805 5.44379H6.50888" stroke="#129E27"/>
        <path d="M12.0118 10.7692C12.9708 9.66895 13.5962 9.10606 14.9112 8.22485C15.9396 8.56919 16.5224 9.01307 17.574 10.2959C17.3812 11.9112 17.0978 12.7905 16.3314 14.3195C15.0899 14.6699 14.3475 14.7453 12.8994 14.5562L12.0118 10.7692Z" fill="#129E27" stroke="#129E27"/>
        <path d="M7.45563 9.34912C9.39062 10.1525 10.3995 10.4736 12.071 10.8284" stroke="#129E27"/>
        <path d="M9.88164 2.72189L9.40826 0.887573C12.1098 1.01856 13.4762 1.4448 15.6213 2.89941L13.9053 4.08284C12.5318 3.14678 11.6615 2.82692 9.88164 2.72189Z" fill="#129E27" stroke="#129E27"/>
        <path d="M6.44971 5.5621C7.61042 4.16054 8.39676 3.49744 10.1183 2.60352" stroke="#129E27"/>
        <path d="M13.9053 3.84619C14.7225 5.63172 14.9318 6.6427 14.9113 8.46158" stroke="#129E27"/>
        <path d="M5.56212 15.9763L4.5 17C6.58926 18.4223 7.83674 18.9303 10.2367 19.1716L9.58579 17.4556C7.87997 17.4164 7.00852 17.0543 5.56212 15.9763Z" fill="#129E27" stroke="#129E27"/>
        <path d="M5.73964 16.213C4.63049 14.8317 4.68945 12.4889 4.49704 11.7751" stroke="#129E27"/>
        <path d="M9.28995 17.5148C11.5976 16.3905 11.8958 15.7049 13.0178 14.3787" stroke="#129E27"/>
        <path d="M17.5 10.5L19.5 9.5" stroke="#129E27"/>
        <path d="M16.5 14.5L17.5 15.5" stroke="#129E27"/>
        <path d="M3 6L2 5" stroke="#129E27"/>
        <path d="M2 9.5L0.5 10.5" stroke="#129E27"/>
    </g>
    
</g></symbol><symbol id="icon-calendar" viewBox="0 0 14 16"><path fill-rule="evenodd" d="M13 2h-1v1.5c0 .28-.22.5-.5.5h-2c-.28 0-.5-.22-.5-.5V2H6v1.5c0 .28-.22.5-.5.5h-2c-.28 0-.5-.22-.5-.5V2H2c-.55 0-1 .45-1 1v11c0 .55.45 1 1 1h11c.55 0 1-.45 1-1V3c0-.55-.45-1-1-1zm0 12H2V5h11v9zM5 3H4V1h1v2zm6 0h-1V1h1v2zM6 7H5V6h1v1zm2 0H7V6h1v1zm2 0H9V6h1v1zm2 0h-1V6h1v1zM4 9H3V8h1v1zm2 0H5V8h1v1zm2 0H7V8h1v1zm2 0H9V8h1v1zm2 0h-1V8h1v1zm-8 2H3v-1h1v1zm2 0H5v-1h1v1zm2 0H7v-1h1v1zm2 0H9v-1h1v1zm2 0h-1v-1h1v1zm-8 2H3v-1h1v1zm2 0H5v-1h1v1zm2 0H7v-1h1v1zm2 0H9v-1h1v1z"/></symbol><symbol id="icon-captain" viewBox="0 0 15 20"><g fill="none">
<rect width="15" height="20" fill="#4D4D4D"/>
<path d="M6.06511 13.5814C6.47636 14.3533 6.99886 14.739 7.63323 14.739C8.28261 14.739 8.77823 14.4081 9.11948 13.7457C9.30823 13.3895 9.46449 12.8552 9.58886 12.1428H11.471C11.3085 13.649 10.8935 14.8738 10.2267 15.8176C9.55886 16.7609 8.70449 17.2328 7.66136 17.2328C6.37105 17.2328 5.35667 16.5957 4.61886 15.3205C3.88042 14.04 3.51105 12.2833 3.51105 10.0524C3.51105 7.63998 3.93105 5.78046 4.77073 4.47475C5.50136 3.33713 6.43042 2.76855 7.55823 2.76855C9.06761 2.76855 10.171 3.53094 10.8689 5.05617C11.2545 5.91236 11.4614 6.77141 11.4895 7.63379H9.5948C9.47386 6.97094 9.31949 6.47189 9.13105 6.13427C8.79355 5.53427 8.29292 5.23379 7.63011 5.23379C6.95511 5.23379 6.42292 5.6576 6.03292 6.50427C5.64355 7.35094 5.44886 8.54951 5.44886 10.099C5.44886 11.6486 5.65448 12.809 6.06511 13.5814Z" fill="white"/>
</g></symbol><symbol id="icon-card_r" viewBox="0 0 20 20"><g style="isolation:isolate"><g clip-path="url(#_clipPath_YMD6bUwfXAROXtjMijCQ1ndynkGS9MPU)"><rect x="4" y="1.5" width="12" height="17" transform="matrix(1,0,0,1,0,0)" fill="rgb(244,67,54)"/></g></g></symbol><symbol id="icon-card_y" viewBox="0 0 20 20"><g style="isolation:isolate"><g clip-path="url(#_clipPath_sSTLzZ203PihI8dx6z2pgoUhynJKEvII)"><rect x="4" y="1.5" width="12" height="17" transform="matrix(1,0,0,1,0,0)" fill="rgb(255,235,59)"/></g></g></symbol><symbol id="icon-card_yr" viewBox="0 0 20 20"><g style="isolation:isolate"><g clip-path="url(#_clipPath_HLHsSl0jVqEdtaYK0F7xAc9emc9wbwf1)"><rect x="1" y="3" width="12" height="17" transform="matrix(1,0,0,1,0,0)" fill="rgb(255,235,59)"/><rect x="7" y="0" width="12" height="17" transform="matrix(1,0,0,1,0,0)" fill="rgb(244,67,54)"/></g></g></symbol><symbol id="icon-chevron-down" viewBox="0 0 24 24"><g fill="none" stroke="currentColor" stroke-width="2" stroke-linecap="round" stroke-linejoin="round"><polyline points="6 9 12 15 18 9"/></g></symbol><symbol id="icon-clock-alt" viewBox="0 0 24 24"><g fill="none" stroke="currentColor" stroke-width="2" stroke-linecap="round" stroke-linejoin="round"><circle cx="12" cy="12" r="10"/><polyline points="12 6 12 12 16 14"/></g></symbol><symbol id="icon-clock" viewBox="0 0 14 16"><path fill-rule="evenodd" d="M8 8h3v2H7c-.55 0-1-.45-1-1V4h2v4zM7 2.3c3.14 0 5.7 2.56 5.7 5.7s-2.56 5.7-5.7 5.7A5.71 5.71 0 0 1 1.3 8c0-3.14 2.56-5.7 5.7-5.7zM7 1C3.14 1 0 4.14 0 8s3.14 7 7 7 7-3.14 7-7-3.14-7-7-7z"/></symbol><symbol id="icon-eye" viewBox="0 0 16 16"><path fill-rule="evenodd" d="M8.06 2C3 2 0 8 0 8s3 6 8.06 6C13 14 16 8 16 8s-3-6-7.94-6zM8 12c-2.2 0-4-1.78-4-4 0-2.2 1.8-4 4-4 2.22 0 4 1.8 4 4 0 2.22-1.78 4-4 4zm2-4c0 1.11-.89 2-2 2-1.11 0-2-.89-2-2 0-1.11.89-2 2-2 1.11 0 2 .89 2 2z"/></symbol><symbol id="icon-facebook" viewBox="0 0 30 30"><g fill="none">
<g clip-path="url(#clip0_4_13)">
<path d="M25.5 0H4.5C2.01472 0 0 2.01472 0 4.5V25.5C0 27.9853 2.01472 30 4.5 30H25.5C27.9853 30 30 27.9853 30 25.5V4.5C30 2.01472 27.9853 0 25.5 0Z" fill="#1877F2"/>
<path d="M20.8359 19.3359L21.5039 15H17.3438V12.1875C17.3438 11.0039 17.9238 9.84375 19.7871 9.84375H21.6797V6.15234C21.6797 6.15234 19.9629 5.85938 18.3223 5.85938C14.8945 5.85938 12.6562 7.93359 12.6562 11.6953V15H8.84766V19.3359H12.6562V30H17.3438V19.3359H20.8359Z" fill="white"/>
</g>

</g></symbol><symbol id="icon-field-shirt-in" viewBox="0 0 17 20"><g fill="none">
<g clip-path="url(#clip0)">
<rect width="20" height="17" transform="translate(17) rotate(90)" fill="white"/>
<path d="M17 0L17 20L-1.20205e-06 20L-3.27826e-07 -7.43094e-07L17 0Z" fill="#57A455"/>
<path d="M12 18.5L12.5 18.5L12.5 18L12.5 16L12.5 15.5L12 15.5L5 15.5L4.5 15.5L4.5 16L4.5 18L4.5 18.5L5 18.5L12 18.5Z" stroke="#99C297"/>
<path d="M12 4.5L12.5 4.5L12.5 4L12.5 2L12.5 1.5L12 1.5L5 1.5L4.5 1.5L4.5 2L4.5 4L4.5 4.5L5 4.5L12 4.5Z" stroke="#99C297"/>
<path d="M15 18.5L15.5 18.5L15.5 18L15.5 2L15.5 1.5L15 1.5L2 1.5L1.5 1.5L1.5 2L1.5 18L1.5 18.5L2 18.5L15 18.5Z" stroke="#99C297"/>
<path d="M9.10631 11C9.07422 11.0009 9.04182 11.0105 9.01196 11.0292L7.09967 12.2287C7.00413 12.2886 6.97172 12.4202 7.02688 12.524L7.6783 13.75C7.73346 13.8538 7.85487 13.889 7.95041 13.8291L8.94983 13.2022V17.7834C8.94983 17.9033 9.03883 18 9.14915 18H12.841C12.9514 18 13.0401 17.9033 13.0401 17.7834V13.196L14.0498 13.8292C14.1454 13.8891 14.2665 13.8539 14.3217 13.7501L14.9731 12.5241C15.0283 12.4203 14.9959 12.2887 14.9003 12.2288L12.9883 11.0293C12.9495 11.005 12.9063 10.9963 12.8651 11.0016C12.8572 11.0006 12.8492 11.0001 12.841 11.0001H11.7834C11.7678 11.1364 11.4226 11.2456 10.9999 11.2456C10.5771 11.2456 10.2322 11.1364 10.2166 11.0001H9.14912C9.14269 11.0001 9.13634 11.0007 9.13008 11.0013C9.12213 11.0005 9.11431 10.9999 9.10628 11.0001L9.10631 11Z" fill="white"/>
<path fill-rule="evenodd" clip-rule="evenodd" d="M9.8 6.9L15 6.9L15 4.1L9.8 4.1L9.8 2L2 5.5L9.8 9L9.8 6.9Z" fill="white"/>
</g>

</g></symbol><symbol id="icon-field-shirt" viewBox="0 0 17 20"><g fill="none">
<g clip-path="url(#clip0)">
<rect width="20" height="17" transform="translate(17) rotate(90)" fill="white"/>
<path d="M17 0L17 20L-1.20205e-06 20L-3.27826e-07 -7.43094e-07L17 0Z" fill="#57A455"/>
<path d="M12 18.5L12.5 18.5L12.5 18L12.5 16L12.5 15.5L12 15.5L5 15.5L4.5 15.5L4.5 16L4.5 18L4.5 18.5L5 18.5L12 18.5Z" stroke="#99C297"/>
<path d="M12 4.5L12.5 4.5L12.5 4L12.5 2L12.5 1.5L12 1.5L5 1.5L4.5 1.5L4.5 2L4.5 4L4.5 4.5L5 4.5L12 4.5Z" stroke="#99C297"/>
<path d="M15 18.5L15.5 18.5L15.5 18L15.5 2L15.5 1.5L15 1.5L2 1.5L1.5 1.5L1.5 2L1.5 18L1.5 18.5L2 18.5L15 18.5Z" stroke="#99C297"/>
<path d="M5.42275 8C5.3706 8.00148 5.31796 8.01645 5.26944 8.04588L2.16196 9.9308C2.0067 10.025 1.95404 10.2318 2.04368 10.3949L3.10224 12.3214C3.19188 12.4845 3.38917 12.5398 3.54442 12.4457L5.16847 11.4607V18.6597C5.16847 18.848 5.3131 19 5.49237 19H11.4917C11.671 19 11.8151 18.848 11.8151 18.6597V11.4508L13.456 12.4459C13.6113 12.54 13.8081 12.4847 13.8977 12.3216L14.9563 10.3951C15.046 10.2319 14.9933 10.0252 14.8381 9.93099L11.731 8.04608C11.6679 8.00782 11.5977 7.99426 11.5308 8.00259C11.518 8.00097 11.505 8.0002 11.4917 8.0002H9.77307C9.74765 8.21441 9.18671 8.38589 8.4998 8.38589C7.81282 8.38589 7.25238 8.21441 7.2269 8.0002H5.49231C5.48188 8.0002 5.47155 8.0011 5.46138 8.00211C5.44847 8.00083 5.43575 7.99983 5.42271 8.0002L5.42275 8Z" fill="white"/>
</g>

</g></symbol><symbol id="icon-field" viewBox="0 0 17 20"><g fill="none">
<g clip-path="url(#clip0)">
<rect width="20" height="17" transform="translate(17) rotate(90)" fill="white"/>
<path d="M17 0L17 20L-1.20205e-06 20L-3.27826e-07 -7.43094e-07L17 0Z" fill="#57A455"/>
<path d="M12 18.5L12.5 18.5L12.5 18L12.5 16L12.5 15.5L12 15.5L5 15.5L4.5 15.5L4.5 16L4.5 18L4.5 18.5L5 18.5L12 18.5Z" stroke="#99C297"/>
<path d="M12 4.5L12.5 4.5L12.5 4L12.5 2L12.5 1.5L12 1.5L5 1.5L4.5 1.5L4.5 2L4.5 4L4.5 4.5L5 4.5L12 4.5Z" stroke="#99C297"/>
<path d="M15 18.5L15.5 18.5L15.5 18L15.5 2L15.5 1.5L15 1.5L2 1.5L1.5 1.5L1.5 2L1.5 18L1.5 18.5L2 18.5L15 18.5Z" stroke="#99C297"/>
</g>

</g></symbol><symbol id="icon-instagram" viewBox="0 0 30 30"><g fill="none">
<path d="M25.5 0H4.5C2.01472 0 0 2.01472 0 4.5V25.5C0 27.9853 2.01472 30 4.5 30H25.5C27.9853 30 30 27.9853 30 25.5V4.5C30 2.01472 27.9853 0 25.5 0Z" fill="#D43377"/>
<path d="M19.1016 6.32812H10.8984C8.37432 6.32812 6.32812 8.37432 6.32812 10.8984V19.1016C6.32812 21.6257 8.37432 23.6719 10.8984 23.6719H19.1016C21.6257 23.6719 23.6719 21.6257 23.6719 19.1016V10.8984C23.6719 8.37432 21.6257 6.32812 19.1016 6.32812Z" stroke="white" stroke-width="1.69922"/>
<path d="M15 19.043C17.2329 19.043 19.043 17.2329 19.043 15C19.043 12.7671 17.2329 10.957 15 10.957C12.7671 10.957 10.957 12.7671 10.957 15C10.957 17.2329 12.7671 19.043 15 19.043Z" stroke="white" stroke-width="1.69922"/>
<path d="M20.0977 11.0156C20.7125 11.0156 21.2109 10.5172 21.2109 9.90234C21.2109 9.2875 20.7125 8.78906 20.0977 8.78906C19.4828 8.78906 18.9844 9.2875 18.9844 9.90234C18.9844 10.5172 19.4828 11.0156 20.0977 11.0156Z" fill="white"/>
</g></symbol><symbol id="icon-linkedin" viewBox="0 0 30 30"><g fill="none">
<g clip-path="url(#clip0_4_59)">
<path d="M25.5 0H4.5C2.01472 0 0 2.01472 0 4.5V25.5C0 27.9853 2.01472 30 4.5 30H25.5C27.9853 30 30 27.9853 30 25.5V4.5C30 2.01472 27.9853 0 25.5 0Z" fill="#0077B5"/>
<path d="M8.32031 10.2539C9.51765 10.2539 10.4883 9.28327 10.4883 8.08594C10.4883 6.8886 9.51765 5.91797 8.32031 5.91797C7.12298 5.91797 6.15234 6.8886 6.15234 8.08594C6.15234 9.28327 7.12298 10.2539 8.32031 10.2539Z" fill="white"/>
<path d="M14.2969 11.3672V22.9688ZM8.32031 11.3672V22.9688Z" fill="white"/>
<path d="M14.2969 11.3672V22.9688M8.32031 11.3672V22.9688" stroke="white" stroke-width="3.86719"/>
<path d="M16.1719 16.5234C16.1719 15.3516 16.9336 14.1797 18.2812 14.1797C19.6875 14.1797 20.2148 15.2344 20.2148 16.8164V22.9688H24.082V16.3477C24.082 12.7734 22.207 11.1328 19.6289 11.1328C17.6367 11.1328 16.6406 12.2461 16.1719 13.0078" fill="white"/>
</g>

</g></symbol><symbol id="icon-location" viewBox="0 0 12 16"><path fill-rule="evenodd" d="M6 0C2.69 0 0 2.5 0 5.5 0 10.02 6 16 6 16s6-5.98 6-10.5C12 2.5 9.31 0 6 0zm0 14.55C4.14 12.52 1 8.44 1 5.5 1 3.02 3.25 1 6 1c1.34 0 2.61.48 3.56 1.36.92.86 1.44 1.97 1.44 3.14 0 2.94-3.14 7.02-5 9.05zM8 5.5c0 1.11-.89 2-2 2-1.11 0-2-.89-2-2 0-1.11.89-2 2-2 1.11 0 2 .89 2 2z"/></symbol><symbol id="icon-plus-circle" viewBox="0 0 24 24"><path d="M12.75 7.75a.75.75 0 00-1.5 0v3.5h-3.5a.75.75 0 000 1.5h3.5v3.5a.75.75 0 001.5 0v-3.5h3.5a.75.75 0 000-1.5h-3.5v-3.5z"/><path fill-rule="evenodd" d="M12 1C5.925 1 1 5.925 1 12s4.925 11 11 11 11-4.925 11-11S18.075 1 12 1zM2.5 12a9.5 9.5 0 1119 0 9.5 9.5 0 01-19 0z"/></symbol><symbol id="icon-question" viewBox="0 0 24 24"><path d="M10.97 8.265a1.45 1.45 0 00-.487.57.75.75 0 01-1.341-.67c.2-.402.513-.826.997-1.148C10.627 6.69 11.244 6.5 12 6.5c.658 0 1.369.195 1.934.619a2.45 2.45 0 011.004 2.006c0 1.033-.513 1.72-1.027 2.215-.19.183-.399.358-.579.508l-.147.123a4.329 4.329 0 00-.435.409v1.37a.75.75 0 11-1.5 0v-1.473c0-.237.067-.504.247-.736.22-.28.486-.517.718-.714l.183-.153.001-.001c.172-.143.324-.27.47-.412.368-.355.569-.676.569-1.136a.953.953 0 00-.404-.806C12.766 8.118 12.384 8 12 8c-.494 0-.814.121-1.03.265zM13 17a1 1 0 11-2 0 1 1 0 012 0z"/><path fill-rule="evenodd" d="M12 1C5.925 1 1 5.925 1 12s4.925 11 11 11 11-4.925 11-11S18.075 1 12 1zM2.5 12a9.5 9.5 0 1119 0 9.5 9.5 0 01-19 0z"/></symbol><symbol id="icon-stadium" viewBox="0 0 23 14"><g fill="none">
<path d="M1.725 0C0.773806 0 0 0.724635 0 1.61538V12.3846C0 13.2754 0.773806 14 1.725 14H21.275C22.2262 14 23 13.2754 23 12.3846V1.61538C23 0.724635 22.2262 0 21.275 0H1.725ZM10.925 9.63813C9.61429 9.38801 8.625 8.30018 8.625 7C8.625 5.69982 9.61429 4.61199 10.925 4.36187V9.63813ZM12.075 4.36187C13.3857 4.61199 14.375 5.69982 14.375 7C14.375 8.30018 13.3857 9.38801 12.075 9.63813V4.36187ZM1.15 4.30769H3.45V9.69231H1.15V4.30769ZM1.15 12.3846V10.7692H4.025C4.34254 10.7692 4.6 10.5281 4.6 10.2308V3.76923C4.6 3.47187 4.34254 3.23077 4.025 3.23077H1.15V1.61538C1.15 1.31849 1.40796 1.07692 1.725 1.07692H10.925V3.26987C8.97712 3.53204 7.475 5.10455 7.475 7C7.475 8.89545 8.97712 10.468 10.925 10.7301V12.9231H1.725C1.40796 12.9231 1.15 12.6815 1.15 12.3846ZM21.85 9.69231H19.55V4.30769H21.85V9.69231ZM21.85 1.61538V3.23077H18.975C18.6575 3.23077 18.4 3.47187 18.4 3.76923V10.2308C18.4 10.5281 18.6575 10.7692 18.975 10.7692H21.85V12.3846C21.85 12.6815 21.592 12.9231 21.275 12.9231H12.075V10.7301C14.0229 10.468 15.525 8.89545 15.525 7C15.525 5.10455 14.0229 3.53197 12.075 3.26987V1.07692H21.275C21.592 1.07692 21.85 1.31849 21.85 1.61538Z" fill="#B7B7B7"/>
</g></symbol><symbol id="icon-substitute" viewBox="0 0 20 20"><g fill="none">
    <path d="M17.7199 11.7453C17.5396 11.5552 17.301 11.4511 17.047 11.4511H12.2899C11.7656 11.4511 11.3402 11.8972 11.3402 12.4469V13.2918C11.3402 13.5575 11.4386 13.8131 11.619 14.002C11.799 14.1905 12.0369 14.3004 12.2899 14.3004H13.5482C12.4328 15.4402 10.8987 16.1565 9.29128 16.1565C6.75131 16.1565 4.48134 14.4666 3.64275 11.9556C3.45209 11.3847 2.93654 11 2.35989 11C2.20727 11 2.05608 11.0262 1.91082 11.0795C1.56811 11.2053 1.29273 11.4631 1.1353 11.8058C0.97774 12.1485 0.95709 12.5353 1.07703 12.8942C2.29681 16.5464 5.59221 19 9.28562 19C11.5533 19 13.6507 18.1124 15.2817 16.4925V17.4272C15.2817 17.9771 15.7196 18.4319 16.2443 18.4319H17.0502C17.575 18.4319 18 17.9771 18 17.4272V12.4504C18 12.1841 17.901 11.9338 17.7199 11.7453Z" fill="#D51818"/>
    <path d="M2.28005 9.16158C2.46039 9.37539 2.69899 9.49248 2.95302 9.49248H7.71006C8.23438 9.49248 8.65983 8.99062 8.65983 8.37219V7.42169C8.65983 7.12281 8.56138 6.83527 8.38105 6.62279C8.201 6.41064 7.9631 6.28705 7.71006 6.28705H6.45181C7.56721 5.00482 9.10126 4.19892 10.7087 4.19892C13.2487 4.19892 15.5187 6.10009 16.3573 8.92491C16.5479 9.5672 17.0635 10 17.6401 10C17.7927 10 17.9439 9.97048 18.0892 9.9106C18.4319 9.769 18.7073 9.47897 18.8647 9.09353C19.0223 8.70792 19.0429 8.27278 18.923 7.869C17.7032 3.76028 14.4078 1 10.7144 1C8.44668 1 6.34927 1.99854 4.71833 3.82099V2.76941C4.71833 2.15081 4.28043 1.63912 3.75569 1.63912H2.94977C2.42503 1.63912 2 2.15081 2 2.76941V8.36835C2 8.6679 2.09901 8.94943 2.28005 9.16158Z" fill="#058F2F"/>
</g></symbol><symbol id="icon-tiktok" viewBox="0 0 30 30"><g fill="none">
<path d="M0 0H30V30H0" fill="white"/>
<path d="M13.8868 12.5977C12.5017 12.4065 11.0913 12.6434 9.8447 13.2766C8.59811 13.9099 7.57495 14.9091 6.91244 16.1404C6.24993 17.3717 5.97974 18.7761 6.13812 20.1653C6.2965 21.5545 6.87588 22.8621 7.79854 23.9126C8.7212 24.9632 9.94302 25.7065 11.3002 26.0429C12.6573 26.3792 14.0848 26.2926 15.3913 25.7946C16.6978 25.2966 17.8208 24.411 18.6097 23.2565C19.3985 22.1021 19.8155 20.7341 19.8047 19.3359V11.8359C21.3082 12.9114 23.1125 13.4855 24.961 13.4766V9.78516C23.5935 9.78516 22.2819 9.24191 21.315 8.27493C20.348 7.30794 19.8047 5.99643 19.8047 4.62891H16.0547V19.3945C16.0579 20.0642 15.8485 20.7175 15.4567 21.2606C15.0649 21.8037 14.511 22.2085 13.8745 22.4167C13.2381 22.6249 12.552 22.6258 11.9149 22.4193C11.2779 22.2128 10.7229 21.8095 10.3296 21.2675C9.93641 20.7254 9.72529 20.0726 9.72665 19.403C9.72802 18.7333 9.9418 18.0814 10.3372 17.541C10.7327 17.0006 11.2894 16.5995 11.9272 16.3956C12.5651 16.1917 13.2512 16.1954 13.8868 16.4062" fill="#FF0055"/>
<g style="mix-blend-mode:multiply">
<path d="M12.8321 11.7188C11.447 11.5276 10.0366 11.7645 8.79001 12.3977C7.54342 13.031 6.52026 14.0302 5.85775 15.2615C5.19524 16.4928 4.92506 17.8972 5.08344 19.2864C5.24182 20.6756 5.82119 21.9832 6.74385 23.0337C7.66651 24.0843 8.88834 24.8276 10.2455 25.164C11.6026 25.5003 13.0301 25.4137 14.3366 24.9157C15.6431 24.4177 16.7661 23.532 17.555 22.3776C18.3438 21.2232 18.7608 19.8552 18.75 18.457V10.957C20.2535 12.0325 22.0578 12.6066 23.9063 12.5977V8.90625C22.5388 8.90625 21.2273 8.363 20.2603 7.39602C19.2933 6.42903 18.75 5.11752 18.75 3.75H15V18.5156C15.0032 19.1853 14.7938 19.8386 14.402 20.3817C14.0103 20.9248 13.4563 21.3296 12.8198 21.5378C12.1834 21.746 11.4973 21.7469 10.8603 21.5404C10.2233 21.3339 9.66819 20.9306 9.27496 20.3886C8.88172 19.8465 8.6706 19.1937 8.67196 18.5241C8.67333 17.8544 8.88712 17.2025 9.28256 16.6621C9.678 16.1217 10.2347 15.7206 10.8725 15.5167C11.5104 15.3128 12.1965 15.3165 12.8321 15.5273" fill="#00EEEE"/>
</g>
</g></symbol><symbol id="icon-twitter" viewBox="0 0 30 30"><g fill="none">
<path d="M17.8556 12.7047L29.0222 0H26.3778L16.6778 11.0263L8.93333 0H0L11.7111 16.6728L0 30H2.64444L12.8889 18.3512L21.0667 30H30L17.8556 12.7047ZM3.6 1.94516H7.66667L26.3778 28.1326H22.3111L3.6 1.94516Z" fill="black"/>
</g></symbol><symbol id="icon-vk" viewBox="0 0 30 30"><g fill="none">
<g clip-path="url(#clip0_3_10)">
<path d="M25.5 0H4.5C2.01472 0 0 2.01472 0 4.5V25.5C0 27.9853 2.01472 30 4.5 30H25.5C27.9853 30 30 27.9853 30 25.5V4.5C30 2.01472 27.9853 0 25.5 0Z" fill="#5281B8"/>
<path d="M16.0547 21.2695C16.3477 21.2109 16.875 21.0938 16.875 20.3906C16.875 20.3906 16.8164 18.6328 17.6367 18.3984C18.457 18.1641 19.5117 20.0977 20.625 20.8594C21.4453 21.3867 22.0898 21.3281 22.0898 21.3281L25.0781 21.2695C25.0781 21.2695 26.6016 21.1524 25.8984 19.9219C25.8398 19.8047 25.3711 19.043 23.6133 17.4609C21.7969 15.7031 22.0898 15.9961 24.2578 13.0078C25.6055 11.1914 26.1914 10.0781 26.0156 9.66798C25.7812 9.25782 24.8437 9.31642 24.8437 9.31642H21.5039C21.1523 9.31642 20.9766 9.37501 20.8008 9.66798C20.8008 9.66798 20.2734 11.1328 19.5703 12.3047C18.1055 14.8242 17.5195 14.9414 17.2266 14.7656C16.6992 14.4727 16.8164 13.3594 16.8164 12.5977C16.8164 9.96095 17.2266 9.02345 16.0547 8.78907C15.293 8.67189 12.5977 8.5547 11.7773 8.96486C11.3672 9.19923 11.1328 9.60939 11.3086 9.66798C11.4844 9.66798 12.0117 9.72657 12.3047 10.0781C12.7734 10.8399 12.832 14.4727 12.1875 14.8242C11.3086 15.4688 9.08203 11.1914 8.55469 9.78517C8.4375 9.43361 8.26172 9.37501 7.85156 9.25782H4.6289C4.27734 9.25782 3.75 9.31642 3.98437 10.0195C5.5664 13.3008 8.84765 21.3281 14.7656 21.2695H16.0547Z" fill="white"/>
</g>

</g></symbol><symbol id="icon-watch" viewBox="0 0 12 16"><path fill-rule="evenodd" d="M6 8h2v1H5V5h1v3zm6 0c0 2.22-1.2 4.16-3 5.19V15c0 .55-.45 1-1 1H4c-.55 0-1-.45-1-1v-1.81C1.2 12.16 0 10.22 0 8s1.2-4.16 3-5.19V1c0-.55.45-1 1-1h4c.55 0 1 .45 1 1v1.81c1.8 1.03 3 2.97 3 5.19zm-1 0c0-2.77-2.23-5-5-5S1 5.23 1 8s2.23 5 5 5 5-2.23 5-5z"/></symbol><symbol id="icon-whistle" viewBox="0 0 64.002 64.002"><g style="enable-background:new 0 0 64.002 64.002;">
<g id="Whistle">
	<path d="M63.002,22.988H28.938h-4.09h-0.91c-0.108,0-0.207,0.03-0.305,0.061c-6.527,0.394-12.219,3.902-15.596,9.073
		c-0.327-0.256-0.685-0.473-1.069-0.642c-2.515-1.098-5.452,0.054-6.55,2.569c-0.531,1.217-0.557,2.569-0.071,3.807
		c0.485,1.238,1.423,2.212,2.642,2.744c0.598,0.26,1.241,0.39,1.888,0.404c-0.069,0.678-0.105,1.365-0.105,2.061
		c0,11.07,9.006,20.077,20.077,20.077c11.07,0,20.077-9.006,20.077-20.077c0-2.961-0.653-5.881-1.901-8.539h19.979
		c0.552,0,1-0.448,1-1v-9.538C64.002,23.436,63.554,22.988,63.002,22.988z M27.938,24.988v4.652c0,0.164-0.22,0.348-0.515,0.348
		h-1.97c-0.294,0-0.515-0.184-0.515-0.348v-4.652H27.938z M4.759,39.006c-0.333-0.024-0.663-0.106-0.973-0.24
		c-0.727-0.317-1.288-0.9-1.578-1.64c-0.29-0.741-0.275-1.549,0.043-2.277c0.488-1.117,1.584-1.784,2.73-1.784
		c0.397,0,0.799,0.08,1.185,0.248c0.31,0.136,0.593,0.322,0.838,0.55L6.82,34.285c-0.257,0.526-0.492,1.062-0.704,1.612
		L4.759,39.006z M40.508,34.027c1.581,2.734,2.417,5.859,2.417,9.038c0,9.967-8.109,18.077-18.077,18.077
		c-9.968,0-18.077-8.109-18.077-18.077c0-2.252,0.433-4.4,1.188-6.391l0.702-1.608c2.689-5.418,8.001-9.312,14.276-9.974v4.548
		c0,1.295,1.128,2.348,2.515,2.348h1.97c1.387,0,2.515-1.053,2.515-2.348v-4.652h25.295v7.538H41.373
		c-0.357,0-0.688,0.191-0.866,0.501C40.328,33.337,40.329,33.718,40.508,34.027z M62.002,32.526h-4.769v-7.538h4.769V32.526z"/>
	<path d="M19.247,18.312c0.193,0.289,0.51,0.445,0.833,0.445c0.19,0,0.383-0.054,0.554-0.168c0.459-0.306,0.583-0.927,0.277-1.387
		l-6.359-9.539c-0.307-0.46-0.927-0.584-1.387-0.277c-0.459,0.306-0.583,0.927-0.277,1.387L19.247,18.312z"/>
	<path d="M32.796,18.757c0.323,0,0.64-0.156,0.833-0.445l6.359-9.539c0.306-0.46,0.182-1.081-0.277-1.387
		c-0.46-0.307-1.08-0.183-1.387,0.277l-6.359,9.539c-0.306,0.459-0.182,1.08,0.277,1.387C32.412,18.703,32.605,18.757,32.796,18.757
		z"/>
	<path d="M26.438,15.578c0.552,0,1-0.448,1-1V1.86c0-0.552-0.448-1-1-1c-0.552,0-1,0.448-1,1v12.718
		C25.438,15.13,25.885,15.578,26.438,15.578z"/>
	<path d="M17.641,34.746c-2.86,0.753-5.004,3.271-5.594,6.573c-0.65,3.634,0.762,7.164,3.686,9.213
		c0.174,0.123,0.374,0.181,0.573,0.181c0.315,0,0.625-0.148,0.82-0.426c0.317-0.452,0.208-1.076-0.245-1.393
		c-2.723-1.909-3.265-4.983-2.864-7.224c0.452-2.526,2.036-4.438,4.134-4.99c0.534-0.141,0.853-0.688,0.713-1.222
		C18.722,34.925,18.174,34.603,17.641,34.746z"/>
</g>
<g>
</g>
<g>
</g>
<g>
</g>
<g>
</g>
<g>
</g>
<g>
</g>
<g>
</g>
<g>
</g>
<g>
</g>
<g>
</g>
<g>
</g>
<g>
</g>
<g>
</g>
<g>
</g>
<g>
</g>
</g></symbol><symbol id="icon-world-flag" viewBox="0 0 50 30"><g fill="none">
<g clip-path="url(#clip0_123_2)">
<rect width="50" height="30" fill="#F1F1F1"/>
<g clip-path="url(#clip1_123_2)">
<path d="M24.9998 27.9999C32.1795 27.9999 37.9997 22.1797 37.9997 15.0001C37.9997 7.82047 32.1795 2.00024 24.9998 2.00024C17.8202 2.00024 12 7.82047 12 15.0001C12 22.1797 17.8202 27.9999 24.9998 27.9999Z" fill="#86B6EE"/>
<path d="M13.8492 16.7405C14.1071 16.7523 14.3309 16.4346 14.5898 15.6351C14.7551 15.1347 15.2311 14.8036 15.7577 14.8226C15.7577 14.8226 16.2269 15.432 16.3419 17.8435C16.4638 20.428 17.3754 19.5091 17.6066 20.5499C18.0185 22.4049 18.7644 22.6965 19.466 23.3392C20.1676 23.982 20.8472 22.4654 21.3254 20.5499C21.8035 18.6345 22.3491 19.4006 23.1848 18.6905C24.0204 17.9804 23.8527 17.319 25.0442 16.8311C26.2357 16.3432 25.9493 16.8656 25.9741 15.9012C25.9904 15.2699 26.0915 14.6479 26.2873 14.5053C26.8272 14.1117 26.7439 14.0227 26.904 13.1115C27.0641 12.2003 24.7042 11.2188 25.0446 10.3222C25.2762 9.72402 25.2762 9.06092 25.0446 8.46277C25.0446 8.46277 23.9884 7.95292 23.1852 10.3222C22.7456 11.6149 22.4072 9.74367 22.2553 9.39227C22.1034 9.04086 22.2553 7.53286 22.2553 7.53286C20.9468 7.05674 21.5976 8.00899 20.3959 7.53286C19.1942 7.05674 18.8221 7.08355 19.466 5.67346C19.466 5.67346 19.8158 4.19511 18.8566 3.54272C14.6863 5.77913 12.0613 10.1058 12.004 14.8376C12.5257 15.6315 13.3317 16.7174 13.8492 16.7405Z" fill="#666666"/>
<path d="M33.7201 5.35938C33.8696 5.89522 34.1085 6.74063 34.3429 7.53281C34.7243 8.81859 34.366 9.68594 34.3429 10.3221C34.3197 10.9583 35.3004 13.1833 35.2728 13.1114C35.6098 13.344 35.8592 13.6826 35.9813 14.0734C36.0292 14.8624 37.146 15.1122 37.9776 15.7391C37.9914 15.4953 37.9999 15.2475 37.9999 14.9993C38.0037 11.3248 36.4482 7.8211 33.7201 5.35938Z" fill="#666666"/>
<path d="M26.9049 5.67293C28.6579 5.96584 29.6211 6.68612 30.5282 6.77671C31.3326 6.85801 30.5485 5.63068 29.8465 4.71621C29.4596 4.14477 29.3017 3.44871 29.4041 2.76621C28.1879 2.32873 26.9131 2.07579 25.6219 2.01587C26.0737 2.57121 26.7265 3.21146 26.8155 3.51249C26.9447 3.95003 25.6597 5.46493 26.9049 5.67293Z" fill="#666666"/>
<path d="M37.3317 19.1134C36.841 18.517 35.7226 17.2727 35.2729 17.7606C34.6667 18.4175 35.2322 20.543 34.343 20.5499C33.4537 20.5568 32.135 21.4436 31.4423 22.8541C30.7696 24.2232 28.4856 23.6886 28.6485 27.4773C32.7367 26.2773 35.9795 23.1538 37.3317 19.1134Z" fill="#666666"/>
</g>
<line y1="0.5" x2="50" y2="0.5" stroke="#CFCFCF"/>
<line y1="29.5" x2="50" y2="29.5" stroke="#CFCFCF"/>
<line x1="0.5" y1="1" x2="0.500001" y2="29" stroke="#CFCFCF"/>
<line x1="49.5" y1="1" x2="49.5" y2="29" stroke="#CFCFCF"/>
</g>

</g></symbol><symbol id="icon-x-circle" viewBox="0 0 24 24"><path d="M9.036 7.976a.75.75 0 00-1.06 1.06L10.939 12l-2.963 2.963a.75.75 0 101.06 1.06L12 13.06l2.963 2.964a.75.75 0 001.061-1.06L13.061 12l2.963-2.964a.75.75 0 10-1.06-1.06L12 10.939 9.036 7.976z"/><path fill-rule="evenodd" d="M12 1C5.925 1 1 5.925 1 12s4.925 11 11 11 11-4.925 11-11S18.075 1 12 1zM2.5 12a9.5 9.5 0 1119 0 9.5 9.5 0 01-19 0z"/></symbol><symbol id="icon-youtube" viewBox="0 0 30 30"><g fill="none">
<g clip-path="url(#clip0_3_6)">
<path d="M25.5 0H4.5C2.01472 0 0 2.01472 0 4.5V25.5C0 27.9853 2.01472 30 4.5 30H25.5C27.9853 30 30 27.9853 30 25.5V4.5C30 2.01472 27.9853 0 25.5 0Z" fill="#ED1D24"/>
<path d="M25.0195 9.90233C24.7851 9.02342 24.0234 8.3203 23.1445 8.08592C21.1523 7.55858 9.14061 7.49998 6.85545 8.08592C5.97655 8.3203 5.21483 9.02342 4.98045 9.90233C4.45311 12.1289 4.39451 17.8125 4.98045 20.0976C5.21483 20.9765 5.97655 21.6797 6.85545 21.914C8.96483 22.5 20.9765 22.5 23.1445 21.914C24.0234 21.6797 24.7851 20.9765 25.0195 20.0976C25.5469 17.9883 25.5469 12.0703 25.0195 9.90233Z" fill="white"/>
<path d="M12.8906 11.8945V18.1055L18.3398 15" fill="#ED1D24"/>
</g>

</g></symbol></svg>