<svg width="20" height="11" viewBox="0 0 20 11" fill="none" xmlns="http://www.w3.org/2000/svg">
    <rect x="2.50768" y="8.81286" width="1.66289" height="1.94575" rx="0.241388" stroke="black" stroke-width="0.482776"/>
    <rect x="17.6539" y="8.81286" width="1.66289" height="1.94575" rx="0.241388" stroke="black" stroke-width="0.482776"/>
    <rect x="7.05132" y="8.81286" width="1.66289" height="1.94575" rx="0.241388" stroke="black" stroke-width="0.482776"/>
    <path d="M2.69325 8.87452C1.86766 8.44658 0.982935 7.72495 0.667106 6.89104C0.51723 6.49531 0.491996 6.06871 0.668652 5.60118C0.849765 5.12185 1.25925 4.55841 2.0555 3.93849C2.06538 3.93079 2.08077 3.92273 2.0959 3.91845L13.3947 0.721395C13.4306 0.711226 13.4705 0.715023 13.512 0.739006C13.5555 0.764112 13.593 0.807861 13.6108 0.863411C13.9263 1.84829 14.4917 2.98738 15.3856 3.63551C15.8468 3.96984 16.4002 4.17605 17.0356 4.14931C17.6644 4.12284 18.3209 3.87055 19.001 3.38291C19.0826 3.32439 19.2079 3.30997 19.3224 3.35787C19.4305 3.4031 19.4547 3.46644 19.4547 3.51512V8.74701C19.4547 8.8223 19.3937 8.88333 19.3184 8.88333H2.73838C2.71469 8.88333 2.70042 8.87824 2.69326 8.87452L2.44233 9.35862L2.69325 8.87452Z" stroke="black" stroke-width="1.09053"/>
    <path d="M9.39758 1.71436L11.5433 9" stroke="black" stroke-width="0.944433"/>
    <path d="M7 2L9.14569 9.28564" stroke="black" stroke-width="0.944433"/>
</svg>
