<svg width="20" height="20" viewBox="0 0 20 20" fill="none" xmlns="http://www.w3.org/2000/svg">
    <g clip-path="url(#clip0_721_46)">
        <circle cx="10" cy="10" r="9.5" stroke="#129E27"/>
        <path d="M7.45562 9.40828L4.55622 12.1302C3.38472 11.3611 2.79681 10.8608 1.89349 9.82248C2.0592 8.21498 2.27609 7.36598 2.95858 5.97633L6.56805 5.44379L7.45562 9.23077V9.40828Z" fill="#129E27"/>
        <path d="M6.56805 5.44379L7.45562 9.23077V9.40828L4.55622 12.1302C3.38472 11.3611 2.79681 10.8608 1.89349 9.82248C2.0592 8.21498 2.27609 7.36598 2.95858 5.97633L6.56805 5.44379ZM6.56805 5.44379H6.50888" stroke="#129E27"/>
        <path d="M12.0118 10.7692C12.9708 9.66895 13.5962 9.10606 14.9112 8.22485C15.9396 8.56919 16.5224 9.01307 17.574 10.2959C17.3812 11.9112 17.0978 12.7905 16.3314 14.3195C15.0899 14.6699 14.3475 14.7453 12.8994 14.5562L12.0118 10.7692Z" fill="#129E27" stroke="#129E27"/>
        <path d="M7.45563 9.34912C9.39062 10.1525 10.3995 10.4736 12.071 10.8284" stroke="#129E27"/>
        <path d="M9.88164 2.72189L9.40826 0.887573C12.1098 1.01856 13.4762 1.4448 15.6213 2.89941L13.9053 4.08284C12.5318 3.14678 11.6615 2.82692 9.88164 2.72189Z" fill="#129E27" stroke="#129E27"/>
        <path d="M6.44971 5.5621C7.61042 4.16054 8.39676 3.49744 10.1183 2.60352" stroke="#129E27"/>
        <path d="M13.9053 3.84619C14.7225 5.63172 14.9318 6.6427 14.9113 8.46158" stroke="#129E27"/>
        <path d="M5.56212 15.9763L4.5 17C6.58926 18.4223 7.83674 18.9303 10.2367 19.1716L9.58579 17.4556C7.87997 17.4164 7.00852 17.0543 5.56212 15.9763Z" fill="#129E27" stroke="#129E27"/>
        <path d="M5.73964 16.213C4.63049 14.8317 4.68945 12.4889 4.49704 11.7751" stroke="#129E27"/>
        <path d="M9.28995 17.5148C11.5976 16.3905 11.8958 15.7049 13.0178 14.3787" stroke="#129E27"/>
        <path d="M17.5 10.5L19.5 9.5" stroke="#129E27"/>
        <path d="M16.5 14.5L17.5 15.5" stroke="#129E27"/>
        <path d="M3 6L2 5" stroke="#129E27"/>
        <path d="M2 9.5L0.5 10.5" stroke="#129E27"/>
    </g>
    <defs>
        <clipPath id="clip0_721_46">
            <rect width="20" height="20" fill="none"/>
        </clipPath>
    </defs>
</svg>
