<svg width="20" height="20" viewBox="0 0 20 20" fill="none" xmlns="http://www.w3.org/2000/svg">
    <g clip-path="url(#clip0_720_24)">
        <rect width="20" height="20" fill="white"/>
        <path fill-rule="evenodd" clip-rule="evenodd" d="M19 10C19 14.9706 14.9706 19 10 19C5.02944 19 1 14.9706 1 10C1 5.02944 5.02944 1 10 1C14.9706 1 19 5.02944 19 10ZM20 10C20 15.5228 15.5228 20 10 20C4.47715 20 0 15.5228 0 10C0 4.47715 4.47715 0 10 0C15.5228 0 20 4.47715 20 10ZM4.55622 12.1302L7.45562 9.40828V9.23077L6.56805 5.44379L2.95858 5.97633C2.27609 7.36598 2.0592 8.21498 1.89349 9.82248C2.79681 10.8608 3.38472 11.3611 4.55622 12.1302Z" fill="#7F7E7E"/>
        <path d="M12.0118 10.7692C12.9708 9.66895 13.5962 9.10606 14.9112 8.22485C15.9396 8.56919 16.5224 9.01307 17.574 10.2959C17.3812 11.9112 17.0978 12.7905 16.3314 14.3195C15.0899 14.6699 14.3475 14.7453 12.8994 14.5562L12.0118 10.7692Z" fill="#7F7E7E" stroke="#7F7E7E"/>
        <path d="M9.88164 2.72189L9.40826 0.887573C12.1098 1.01856 13.4762 1.4448 15.6213 2.89941L13.9053 4.08284C12.5318 3.14678 11.6615 2.82692 9.88164 2.72189Z" fill="#7F7E7E" stroke="#7F7E7E"/>
        <path d="M5.56212 15.9763L4.5 17C6.58926 18.4223 7.83674 18.9303 10.2367 19.1716L9.58579 17.4556C7.87997 17.4164 7.00852 17.0543 5.56212 15.9763Z" fill="#7F7E7E" stroke="#7F7E7E"/>
        <line x1="1.06066" y1="0.93934" x2="19.0607" y2="18.9393" stroke="#D51818" stroke-width="3"/>
        <line x1="19.0607" y1="1.06066" x2="1.06066" y2="19.0607" stroke="#D51818" stroke-width="3"/>
    </g>
    <defs>
        <clipPath id="clip0_720_24">
            <rect width="20" height="20" fill="none"/>
        </clipPath>
    </defs>
</svg>
