<svg width="30" height="30" viewBox="0 0 30 30" fill="none" xmlns="http://www.w3.org/2000/svg">
<path d="M25.5 0H4.5C2.01472 0 0 2.01472 0 4.5V25.5C0 27.9853 2.01472 30 4.5 30H25.5C27.9853 30 30 27.9853 30 25.5V4.5C30 2.01472 27.9853 0 25.5 0Z" fill="#D43377"/>
<path d="M19.1016 6.32812H10.8984C8.37432 6.32812 6.32812 8.37432 6.32812 10.8984V19.1016C6.32812 21.6257 8.37432 23.6719 10.8984 23.6719H19.1016C21.6257 23.6719 23.6719 21.6257 23.6719 19.1016V10.8984C23.6719 8.37432 21.6257 6.32812 19.1016 6.32812Z" stroke="white" stroke-width="1.69922"/>
<path d="M15 19.043C17.2329 19.043 19.043 17.2329 19.043 15C19.043 12.7671 17.2329 10.957 15 10.957C12.7671 10.957 10.957 12.7671 10.957 15C10.957 17.2329 12.7671 19.043 15 19.043Z" stroke="white" stroke-width="1.69922"/>
<path d="M20.0977 11.0156C20.7125 11.0156 21.2109 10.5172 21.2109 9.90234C21.2109 9.2875 20.7125 8.78906 20.0977 8.78906C19.4828 8.78906 18.9844 9.2875 18.9844 9.90234C18.9844 10.5172 19.4828 11.0156 20.0977 11.0156Z" fill="white"/>
</svg>
