<svg width="30" height="30" viewBox="0 0 30 30" fill="none" xmlns="http://www.w3.org/2000/svg">
<g clip-path="url(#clip0_4_59)">
<path d="M25.5 0H4.5C2.01472 0 0 2.01472 0 4.5V25.5C0 27.9853 2.01472 30 4.5 30H25.5C27.9853 30 30 27.9853 30 25.5V4.5C30 2.01472 27.9853 0 25.5 0Z" fill="#0077B5"/>
<path d="M8.32031 10.2539C9.51765 10.2539 10.4883 9.28327 10.4883 8.08594C10.4883 6.8886 9.51765 5.91797 8.32031 5.91797C7.12298 5.91797 6.15234 6.8886 6.15234 8.08594C6.15234 9.28327 7.12298 10.2539 8.32031 10.2539Z" fill="white"/>
<path d="M14.2969 11.3672V22.9688ZM8.32031 11.3672V22.9688Z" fill="white"/>
<path d="M14.2969 11.3672V22.9688M8.32031 11.3672V22.9688" stroke="white" stroke-width="3.86719"/>
<path d="M16.1719 16.5234C16.1719 15.3516 16.9336 14.1797 18.2812 14.1797C19.6875 14.1797 20.2148 15.2344 20.2148 16.8164V22.9688H24.082V16.3477C24.082 12.7734 22.207 11.1328 19.6289 11.1328C17.6367 11.1328 16.6406 12.2461 16.1719 13.0078" fill="white"/>
</g>
<defs>
<clipPath id="clip0_4_59">
<rect width="30" height="30" fill="white"/>
</clipPath>
</defs>
</svg>
