<svg width="20" height="20" viewBox="0 0 20 20" fill="none" xmlns="http://www.w3.org/2000/svg">
    <path d="M17.7199 11.7453C17.5396 11.5552 17.301 11.4511 17.047 11.4511H12.2899C11.7656 11.4511 11.3402 11.8972 11.3402 12.4469V13.2918C11.3402 13.5575 11.4386 13.8131 11.619 14.002C11.799 14.1905 12.0369 14.3004 12.2899 14.3004H13.5482C12.4328 15.4402 10.8987 16.1565 9.29128 16.1565C6.75131 16.1565 4.48134 14.4666 3.64275 11.9556C3.45209 11.3847 2.93654 11 2.35989 11C2.20727 11 2.05608 11.0262 1.91082 11.0795C1.56811 11.2053 1.29273 11.4631 1.1353 11.8058C0.97774 12.1485 0.95709 12.5353 1.07703 12.8942C2.29681 16.5464 5.59221 19 9.28562 19C11.5533 19 13.6507 18.1124 15.2817 16.4925V17.4272C15.2817 17.9771 15.7196 18.4319 16.2443 18.4319H17.0502C17.575 18.4319 18 17.9771 18 17.4272V12.4504C18 12.1841 17.901 11.9338 17.7199 11.7453Z" fill="#D51818"/>
    <path d="M2.28005 9.16158C2.46039 9.37539 2.69899 9.49248 2.95302 9.49248H7.71006C8.23438 9.49248 8.65983 8.99062 8.65983 8.37219V7.42169C8.65983 7.12281 8.56138 6.83527 8.38105 6.62279C8.201 6.41064 7.9631 6.28705 7.71006 6.28705H6.45181C7.56721 5.00482 9.10126 4.19892 10.7087 4.19892C13.2487 4.19892 15.5187 6.10009 16.3573 8.92491C16.5479 9.5672 17.0635 10 17.6401 10C17.7927 10 17.9439 9.97048 18.0892 9.9106C18.4319 9.769 18.7073 9.47897 18.8647 9.09353C19.0223 8.70792 19.0429 8.27278 18.923 7.869C17.7032 3.76028 14.4078 1 10.7144 1C8.44668 1 6.34927 1.99854 4.71833 3.82099V2.76941C4.71833 2.15081 4.28043 1.63912 3.75569 1.63912H2.94977C2.42503 1.63912 2 2.15081 2 2.76941V8.36835C2 8.6679 2.09901 8.94943 2.28005 9.16158Z" fill="#058F2F"/>
</svg>
