<svg width="30" height="30" viewBox="0 0 30 30" fill="none" xmlns="http://www.w3.org/2000/svg">
<path d="M0 0H30V30H0" fill="white"/>
<path d="M13.8868 12.5977C12.5017 12.4065 11.0913 12.6434 9.8447 13.2766C8.59811 13.9099 7.57495 14.9091 6.91244 16.1404C6.24993 17.3717 5.97974 18.7761 6.13812 20.1653C6.2965 21.5545 6.87588 22.8621 7.79854 23.9126C8.7212 24.9632 9.94302 25.7065 11.3002 26.0429C12.6573 26.3792 14.0848 26.2926 15.3913 25.7946C16.6978 25.2966 17.8208 24.411 18.6097 23.2565C19.3985 22.1021 19.8155 20.7341 19.8047 19.3359V11.8359C21.3082 12.9114 23.1125 13.4855 24.961 13.4766V9.78516C23.5935 9.78516 22.2819 9.24191 21.315 8.27493C20.348 7.30794 19.8047 5.99643 19.8047 4.62891H16.0547V19.3945C16.0579 20.0642 15.8485 20.7175 15.4567 21.2606C15.0649 21.8037 14.511 22.2085 13.8745 22.4167C13.2381 22.6249 12.552 22.6258 11.9149 22.4193C11.2779 22.2128 10.7229 21.8095 10.3296 21.2675C9.93641 20.7254 9.72529 20.0726 9.72665 19.403C9.72802 18.7333 9.9418 18.0814 10.3372 17.541C10.7327 17.0006 11.2894 16.5995 11.9272 16.3956C12.5651 16.1917 13.2512 16.1954 13.8868 16.4062" fill="#FF0055"/>
<g style="mix-blend-mode:multiply">
<path d="M12.8321 11.7188C11.447 11.5276 10.0366 11.7645 8.79001 12.3977C7.54342 13.031 6.52026 14.0302 5.85775 15.2615C5.19524 16.4928 4.92506 17.8972 5.08344 19.2864C5.24182 20.6756 5.82119 21.9832 6.74385 23.0337C7.66651 24.0843 8.88834 24.8276 10.2455 25.164C11.6026 25.5003 13.0301 25.4137 14.3366 24.9157C15.6431 24.4177 16.7661 23.532 17.555 22.3776C18.3438 21.2232 18.7608 19.8552 18.75 18.457V10.957C20.2535 12.0325 22.0578 12.6066 23.9063 12.5977V8.90625C22.5388 8.90625 21.2273 8.363 20.2603 7.39602C19.2933 6.42903 18.75 5.11752 18.75 3.75H15V18.5156C15.0032 19.1853 14.7938 19.8386 14.402 20.3817C14.0103 20.9248 13.4563 21.3296 12.8198 21.5378C12.1834 21.746 11.4973 21.7469 10.8603 21.5404C10.2233 21.3339 9.66819 20.9306 9.27496 20.3886C8.88172 19.8465 8.6706 19.1937 8.67196 18.5241C8.67333 17.8544 8.88712 17.2025 9.28256 16.6621C9.678 16.1217 10.2347 15.7206 10.8725 15.5167C11.5104 15.3128 12.1965 15.3165 12.8321 15.5273" fill="#00EEEE"/>
</g>
</svg>
