<svg width="30" height="30" viewBox="0 0 30 30" fill="none" xmlns="http://www.w3.org/2000/svg">
<g clip-path="url(#clip0_3_10)">
<path d="M25.5 0H4.5C2.01472 0 0 2.01472 0 4.5V25.5C0 27.9853 2.01472 30 4.5 30H25.5C27.9853 30 30 27.9853 30 25.5V4.5C30 2.01472 27.9853 0 25.5 0Z" fill="#5281B8"/>
<path d="M16.0547 21.2695C16.3477 21.2109 16.875 21.0938 16.875 20.3906C16.875 20.3906 16.8164 18.6328 17.6367 18.3984C18.457 18.1641 19.5117 20.0977 20.625 20.8594C21.4453 21.3867 22.0898 21.3281 22.0898 21.3281L25.0781 21.2695C25.0781 21.2695 26.6016 21.1524 25.8984 19.9219C25.8398 19.8047 25.3711 19.043 23.6133 17.4609C21.7969 15.7031 22.0898 15.9961 24.2578 13.0078C25.6055 11.1914 26.1914 10.0781 26.0156 9.66798C25.7812 9.25782 24.8437 9.31642 24.8437 9.31642H21.5039C21.1523 9.31642 20.9766 9.37501 20.8008 9.66798C20.8008 9.66798 20.2734 11.1328 19.5703 12.3047C18.1055 14.8242 17.5195 14.9414 17.2266 14.7656C16.6992 14.4727 16.8164 13.3594 16.8164 12.5977C16.8164 9.96095 17.2266 9.02345 16.0547 8.78907C15.293 8.67189 12.5977 8.5547 11.7773 8.96486C11.3672 9.19923 11.1328 9.60939 11.3086 9.66798C11.4844 9.66798 12.0117 9.72657 12.3047 10.0781C12.7734 10.8399 12.832 14.4727 12.1875 14.8242C11.3086 15.4688 9.08203 11.1914 8.55469 9.78517C8.4375 9.43361 8.26172 9.37501 7.85156 9.25782H4.6289C4.27734 9.25782 3.75 9.31642 3.98437 10.0195C5.5664 13.3008 8.84765 21.3281 14.7656 21.2695H16.0547Z" fill="white"/>
</g>
<defs>
<clipPath id="clip0_3_10">
<rect width="30" height="30" fill="white"/>
</clipPath>
</defs>
</svg>
