<svg style="display:none" xmlns="http://www.w3.org/2000/svg"><symbol id="icon-alert" viewBox="0 0 24 24"><path d="M13 17.5a1 1 0 1 1-2 0 1 1 0 0 1 2 0m-.25-8.25a.75.75 0 0 0-1.5 0v4.5a.75.75 0 0 0 1.5 0z"/><path fill-rule="evenodd" d="M9.836 3.244c.963-1.665 3.365-1.665 4.328 0l8.967 15.504c.963 1.667-.24 3.752-2.165 3.752H3.034c-1.926 0-3.128-2.085-2.165-3.752zm3.03.751a1 1 0 0 0-1.732 0L2.168 19.499A1 1 0 0 0 3.034 21h17.932a1 1 0 0 0 .866-1.5L12.866 3.994z"/></symbol><symbol id="icon-arrow-bottom" viewBox="0 0 32 32"><path d="m6 22 10 8 10-8m-10 8V2"/></symbol><symbol id="icon-arrow-left-circle" viewBox="0 0 24 24"><circle cx="12" cy="12" r="10"/><path d="m12 8-4 4 4 4M16 12H8"/></symbol><symbol id="icon-arrow-left" viewBox="0 0 32 32"><path d="M10 6 2 16l8 10M2 16h28"/></symbol><symbol id="icon-arrow-right" viewBox="0 0 32 32"><path d="m22 6 8 10-8 10m8-10H2"/></symbol><symbol id="icon-arrow-top" viewBox="0 0 32 32"><path d="m6 10 10-8 10 8M16 2v28"/></symbol><symbol id="icon-ball" viewBox="0 0 20 20"><path fill-rule="evenodd" d="M0 9.984c0 5.519 4.481 10 10 10s10-4.481 10-10-4.481-10-10-10-10 4.48-10 10m7.53-.219-2.318 2.106 1.045 3.951 3.165 1.097 3.102-2.884-1.189-2.935zM3.199 4.091a8.99 8.99 0 0 1 6.184-3.087l.145.771-3.421 3.601-2.167.122zm4.466 4.661L6.95 5.939l3.189-3.355c.69.059 1.515.275 2.353.646q.574.255 1.06.557l.336 4.472-2.181 1.911zM2.529 4.966A8.95 8.95 0 0 0 1.001 9.86l1.128-.335.883-3.643zM1.045 10.89a9 9 0 0 0 3.473 6.229l.768-1.06-1.081-4.083-1.694-1.521zm9.161 8.091a8.98 8.98 0 0 0 6.404-2.893l-.845-1.485-2.387.004-3.34 3.104zm8.701-10.296a9 9 0 0 0-2.935-5.432l-1.407.668.315 4.195 2.135 1.662zm.091 1.103.002.196a8.96 8.96 0 0 1-1.71 5.276l-.712-1.25.997-3.401z"/></symbol><symbol id="icon-ball_canceled" viewBox="0 0 20 20"><defs><clipPath id="icon-ball_canceled-a"><path d="M0 0h20v20H0z"/></clipPath></defs><g clip-path="url(#icon-ball_canceled-a)"><path fill="#6c6c6c" fill-rule="evenodd" d="M0 9.984c0 5.519 4.481 10 10 10s10-4.481 10-10-4.481-10-10-10-10 4.48-10 10m7.53-.219-2.318 2.106 1.045 3.951 3.165 1.097 3.102-2.884-1.189-2.935zM3.199 4.091a8.99 8.99 0 0 1 6.184-3.087l.145.771-3.421 3.601-2.167.122zm4.466 4.661L6.95 5.939l3.189-3.355c.69.059 1.514.275 2.353.646.381.169.737.357 1.06.557l.336 4.472-2.181 1.911zM2.529 4.966A8.95 8.95 0 0 0 1.001 9.86l1.128-.335.883-3.643zM1.045 10.89a9 9 0 0 0 3.473 6.229l.768-1.06-1.081-4.083-1.694-1.521zm9.161 8.091a8.98 8.98 0 0 0 6.404-2.893l-.845-1.485-2.387.004-3.34 3.104zm8.701-10.296a9 9 0 0 0-2.935-5.432l-1.407.668.315 4.195 2.135 1.662zm.091 1.103.002.196a8.96 8.96 0 0 1-1.71 5.276l-.712-1.25.997-3.401z"/><path d="m17.365 1.963 1.259 1.259c.13.13.13.341 0 .471L2.88 19.437a.333.333 0 0 1-.471 0L1.15 18.178a.33.33 0 0 1 0-.47L16.894 1.963c.13-.13.341-.13.471 0" style="stroke:none;fill:#c83131;stroke-miterlimit:10"/><path d="m18.625 18.175-1.264 1.263a.33.33 0 0 1-.466 0L1.473 4.016a.33.33 0 0 1 0-.466l1.263-1.264a.33.33 0 0 1 .466 0l15.423 15.423a.33.33 0 0 1 0 .466" style="stroke:none;fill:#c83131;stroke-miterlimit:10"/></g></symbol><symbol id="icon-ball_penalty" viewBox="0 0 20 20"><defs><clipPath id="icon-ball_penalty-a"><path d="M0 0h20v20H0z"/></clipPath></defs><g clip-path="url(#icon-ball_penalty-a)"><path fill-rule="evenodd" d="M0 9.984c0 5.519 4.481 10 10 10s10-4.481 10-10-4.481-10-10-10-10 4.48-10 10m7.53-.219-2.318 2.106 1.045 3.951 3.165 1.097 3.102-2.884-1.189-2.935zM3.199 4.091a8.99 8.99 0 0 1 6.184-3.087l.145.771-3.421 3.601-2.167.122zm4.466 4.661L6.95 5.939l3.189-3.355c.69.059 1.514.275 2.353.646.381.169.737.357 1.06.557l.336 4.472-2.181 1.911zM2.529 4.966A8.95 8.95 0 0 0 1.001 9.86l1.128-.335.883-3.643zM1.045 10.89a9 9 0 0 0 3.473 6.229l.768-1.06-1.081-4.083-1.694-1.521zm9.161 8.091a8.98 8.98 0 0 0 6.404-2.893l-.845-1.485-2.387.004-3.34 3.104zm8.701-10.296a9 9 0 0 0-2.935-5.432l-1.407.668.315 4.195 2.135 1.662zm.091 1.103.002.196a8.96 8.96 0 0 1-1.71 5.276l-.712-1.25.997-3.401z"/><path fill="#fff" d="M0 10.391h8.922v3.707H0z"/><path fill="#fff" d="M.363 11.919h10.701v8.064H.363z"/><text style="font-family:&quot;Franklin Gothic Heavy&quot;;font-weight:400;font-size:14px;font-style:normal;fill:#009688;stroke:#fff;stroke-width:.5" transform="translate(.754 21.726)">P</text></g></symbol><symbol id="icon-book" viewBox="0 0 16 16"><path fill-rule="evenodd" d="M3 5h4v1H3zm0 3h4V7H3zm0 2h4V9H3zm11-5h-4v1h4zm0 2h-4v1h4zm0 2h-4v1h4zm2-6v9c0 .55-.45 1-1 1H9.5l-1 1-1-1H2c-.55 0-1-.45-1-1V3c0-.55.45-1 1-1h5.5l1 1 1-1H15c.55 0 1 .45 1 1m-8 .5L7.5 3H2v9h6zm7-.5H9.5l-.5.5V12h6z"/></symbol><symbol id="icon-calendar" viewBox="0 0 32 32"><path d="M2 6v24h28V6Zm0 9h28M7 3v6m6-6v6m6-6v6m6-6v6"/></symbol><symbol id="icon-card_r" viewBox="0 0 20 20"><defs><clipPath id="icon-card_r-a"><path d="M0 0h20v20H0z"/></clipPath></defs><g clip-path="url(#icon-card_r-a)"><path fill="#f44336" d="M4 1.5h12v17H4z"/></g></symbol><symbol id="icon-card_y" viewBox="0 0 20 20"><defs><clipPath id="icon-card_y-a"><path d="M0 0h20v20H0z"/></clipPath></defs><g clip-path="url(#icon-card_y-a)"><path fill="#ffeb3b" d="M4 1.5h12v17H4z"/></g></symbol><symbol id="icon-card_yr" viewBox="0 0 20 20"><defs><clipPath id="icon-card_yr-a"><path d="M0 0h20v20H0z"/></clipPath></defs><g clip-path="url(#icon-card_yr-a)"><path fill="#ffeb3b" d="M1 3h12v17H1z"/><path fill="#f44336" d="M7 0h12v17H7z"/></g></symbol><symbol id="icon-caret-bottom" viewBox="0 0 32 32"><path d="M30 10 16 26 2 10Z"/></symbol><symbol id="icon-caret-left" viewBox="0 0 32 32"><path d="M22 30 6 16 22 2Z"/></symbol><symbol id="icon-caret-right" viewBox="0 0 32 32"><path d="m10 30 16-14L10 2Z"/></symbol><symbol id="icon-caret-top" viewBox="0 0 32 32"><path d="M30 22 16 6 2 22Z"/></symbol><symbol id="icon-checklist" viewBox="0 0 16 16"><path fill-rule="evenodd" d="m16 8.5-6 6-3-3L8.5 10l1.5 1.5L14.5 7zM5.7 12.2l.8.8H2c-.55 0-1-.45-1-1V3c0-.55.45-1 1-1h7c.55 0 1 .45 1 1v6.5l-.8-.8c-.39-.39-1.03-.39-1.42 0L5.7 10.8a.996.996 0 0 0 0 1.41zM4 4h5V3H4zm0 2h5V5H4zm0 2h3V7H4zM3 9H2v1h1zm0-2H2v1h1zm0-2H2v1h1zm0-2H2v1h1z"/></symbol><symbol id="icon-chevron-bottom" viewBox="0 0 32 32"><path d="M30 12 16 24 2 12"/></symbol><symbol id="icon-chevron-left" viewBox="0 0 32 32"><path d="M20 30 8 16 20 2"/></symbol><symbol id="icon-chevron-right" viewBox="0 0 32 32"><path d="m12 30 12-14L12 2"/></symbol><symbol id="icon-chevron-top" viewBox="0 0 32 32"><path d="M30 20 16 8 2 20"/></symbol><symbol id="icon-clock" viewBox="0 0 14 16"><path fill-rule="evenodd" d="M8 8h3v2H7c-.55 0-1-.45-1-1V4h2zM7 2.3c3.14 0 5.7 2.56 5.7 5.7s-2.56 5.7-5.7 5.7A5.71 5.71 0 0 1 1.3 8c0-3.14 2.56-5.7 5.7-5.7M7 1C3.14 1 0 4.14 0 8s3.14 7 7 7 7-3.14 7-7-3.14-7-7-7"/></symbol><symbol id="icon-close" viewBox="0 0 32 32"><path d="M2 30 30 2m0 28L2 2"/></symbol><symbol id="icon-comment" viewBox="0 0 16 16"><path fill-rule="evenodd" d="M14 1H2c-.55 0-1 .45-1 1v8c0 .55.45 1 1 1h2v3.5L7.5 11H14c.55 0 1-.45 1-1V2c0-.55-.45-1-1-1m0 9H7l-2 2v-2H2V2h12z"/></symbol><symbol id="icon-compose" viewBox="0 0 32 32"><path d="M27 15v15H2V5h15m13 1-4-4L9 19l-2 6 6-2Zm-8 0 4 4ZM9 19l4 4Z"/></symbol><symbol id="icon-database" viewBox="0 0 12 16"><path fill-rule="evenodd" d="M6 15c-3.31 0-6-.9-6-2v-2c0-.17.09-.34.21-.5.67.86 3 1.5 5.79 1.5s5.12-.64 5.79-1.5c.13.16.21.33.21.5v2c0 1.1-2.69 2-6 2m0-4c-3.31 0-6-.9-6-2V7c0-.11.04-.21.09-.31.03-.06.07-.13.12-.19C.88 7.36 3.21 8 6 8s5.12-.64 5.79-1.5c.05.06.09.13.12.19.05.1.09.21.09.31v2c0 1.1-2.69 2-6 2m0-4c-3.31 0-6-.9-6-2V3c0-1.1 2.69-2 6-2s6 .9 6 2v2c0 1.1-2.69 2-6 2m0-5c-2.21 0-4 .45-4 1s1.79 1 4 1 4-.45 4-1-1.79-1-4-1"/></symbol><symbol id="icon-device-camera" viewBox="0 0 16 16"><path fill-rule="evenodd" d="M15 3H7c0-.55-.45-1-1-1H2c-.55 0-1 .45-1 1-.55 0-1 .45-1 1v9c0 .55.45 1 1 1h14c.55 0 1-.45 1-1V4c0-.55-.45-1-1-1M6 5H2V4h4zm4.5 7C8.56 12 7 10.44 7 8.5S8.56 5 10.5 5 14 6.56 14 8.5 12.44 12 10.5 12M13 8.5c0 1.38-1.13 2.5-2.5 2.5S8 9.87 8 8.5 9.13 6 10.5 6 13 7.13 13 8.5"/></symbol><symbol id="icon-edit" viewBox="0 0 32 32"><path d="m30 7-5-5L5 22l-2 7 7-2Zm-9-1 5 5ZM5 22l5 5Z"/></symbol><symbol id="icon-export" viewBox="0 0 32 32"><path d="M28 22v8H4v-8M16 4v20M8 12l8-8 8 8"/></symbol><symbol id="icon-eye-off" viewBox="0 0 24 24"><path d="M17.94 17.94A10.07 10.07 0 0 1 12 20c-7 0-11-8-11-8a18.45 18.45 0 0 1 5.06-5.94M9.9 4.24A9 9 0 0 1 12 4c7 0 11 8 11 8a18.5 18.5 0 0 1-2.16 3.19m-6.72-1.07a3 3 0 1 1-4.24-4.24M1 1l22 22"/></symbol><symbol id="icon-eye" viewBox="0 0 16 16"><path fill-rule="evenodd" d="M8.06 2C3 2 0 8 0 8s3 6 8.06 6C13 14 16 8 16 8s-3-6-7.94-6M8 12c-2.2 0-4-1.78-4-4 0-2.2 1.8-4 4-4 2.22 0 4 1.8 4 4 0 2.22-1.78 4-4 4m2-4c0 1.11-.89 2-2 2s-2-.89-2-2 .89-2 2-2 2 .89 2 2"/></symbol><symbol id="icon-gear" viewBox="0 0 14 16"><path fill-rule="evenodd" d="M14 8.77v-1.6l-1.94-.64-.45-1.09.88-1.84-1.13-1.13-1.81.91-1.09-.45-.69-1.92h-1.6l-.63 1.94-1.11.45-1.84-.88-1.13 1.13.91 1.81-.45 1.09L0 7.23v1.59l1.94.64.45 1.09-.88 1.84 1.13 1.13 1.81-.91 1.09.45.69 1.92h1.59l.63-1.94 1.11-.45 1.84.88 1.13-1.13-.92-1.81.47-1.09L14 8.75zM7 11c-1.66 0-3-1.34-3-3s1.34-3 3-3 3 1.34 3 3-1.34 3-3 3"/></symbol><symbol id="icon-git-compare" viewBox="0 0 14 16"><path fill-rule="evenodd" d="M5 12H4c-.27-.02-.48-.11-.69-.31s-.3-.42-.31-.69V4.72A1.993 1.993 0 0 0 2 1a1.993 1.993 0 0 0-1 3.72V11c.03.78.34 1.47.94 2.06s1.28.91 2.06.94h1v2l3-3-3-3zM2 1.8c.66 0 1.2.55 1.2 1.2S2.65 4.2 2 4.2.8 3.65.8 3 1.35 1.8 2 1.8m11 9.48V5c-.03-.78-.34-1.47-.94-2.06S10.78 2.03 10 2H9V0L6 3l3 3V4h1c.27.02.48.11.69.31s.3.42.31.69v6.28A1.993 1.993 0 0 0 12 15a1.993 1.993 0 0 0 1-3.72m-1 2.92c-.66 0-1.2-.55-1.2-1.2s.55-1.2 1.2-1.2 1.2.55 1.2 1.2-.55 1.2-1.2 1.2"/></symbol><symbol id="icon-grabber" viewBox="0 0 8 16"><path fill-rule="evenodd" d="M8 4v1H0V4zM0 8h8V7H0zm0 3h8v-1H0z"/></symbol><symbol id="icon-graph" viewBox="0 0 16 16"><path fill-rule="evenodd" d="M16 14v1H0V0h1v14zM5 13H3V8h2zm4 0H7V3h2zm4 0h-2V6h2z"/></symbol><symbol id="icon-history" viewBox="0 0 14 16"><path fill-rule="evenodd" d="M8 13H6V6h5v2H8zM7 1C4.81 1 2.87 2.02 1.59 3.59L0 2v4h4L2.5 4.5C3.55 3.17 5.17 2.3 7 2.3c3.14 0 5.7 2.56 5.7 5.7s-2.56 5.7-5.7 5.7A5.71 5.71 0 0 1 1.3 8c0-.34.03-.67.09-1H.08C.03 7.33 0 7.66 0 8c0 3.86 3.14 7 7 7s7-3.14 7-7-3.14-7-7-7"/></symbol><symbol id="icon-import" viewBox="0 0 32 32"><path d="M28 22v8H4v-8M16 4v20m-8-8 8 8 8-8"/></symbol><symbol id="icon-info" viewBox="0 0 14 16"><path fill-rule="evenodd" d="M6.3 5.69a.94.94 0 0 1-.28-.7c0-.28.09-.52.28-.7s.42-.28.7-.28.52.09.7.28.28.42.28.7-.09.52-.28.7a1 1 0 0 1-.7.3c-.28 0-.52-.11-.7-.3M8 7.99c-.02-.25-.11-.48-.31-.69-.2-.19-.42-.3-.69-.31H6c-.27.02-.48.13-.69.31-.2.2-.3.44-.31.69h1v3c.02.27.11.5.31.69.2.2.42.31.69.31h1c.27 0 .48-.11.69-.31.2-.19.3-.42.31-.69H8V7.98zM7 2.3c-3.14 0-5.7 2.54-5.7 5.68s2.56 5.7 5.7 5.7 5.7-2.55 5.7-5.7S10.14 2.29 7 2.29zM7 .98c3.86 0 7 3.14 7 7s-3.14 7-7 7-7-3.12-7-7 3.14-7 7-7"/></symbol><symbol id="icon-issue-opened" viewBox="0 0 14 16"><path fill-rule="evenodd" d="M7 2.3c3.14 0 5.7 2.56 5.7 5.7s-2.56 5.7-5.7 5.7A5.71 5.71 0 0 1 1.3 8c0-3.14 2.56-5.7 5.7-5.7M7 1C3.14 1 0 4.14 0 8s3.14 7 7 7 7-3.14 7-7-3.14-7-7-7m1 3H6v5h2zm0 6H6v2h2z"/></symbol><symbol id="icon-jersey" viewBox="0 0 14 16"><path fill-rule="evenodd" d="m4.5 6-.5.5v5l.5.5h2l.5-.5v-5L6.5 6zM6 11H5V7h1zm6.27-7.25Q11.94 1.68 12 0H9.02c0 .27-.13.48-.39.69-.25.2-.63.3-1.13.3S6.62.9 6.37.69C6.14.49 6.01.27 6.01 0H3c.05 1.13-.03 2.38-.25 3.75C2.55 5.13 1.95 5.88 1 6v9c.02.27.11.48.31.69s.42.3.69.31h11c.27-.02.48-.11.69-.31s.3-.42.31-.69V6c-.95-.13-1.53-.88-1.75-2.25zM13 15H2V7c.89-.5 1.48-1.25 1.72-2.25S4.03 2.5 4 1h1c-.02.78.16 1.47.52 2.06.36.58 1.02.89 2 .94.98-.02 1.64-.33 2-.94.36-.59.5-1.28.48-2.06h1c.02 1.42.13 2.55.33 3.38.2.81.69 2 1.67 2.63v8zM8.5 6l-.5.5v5l.5.5h2l.5-.5v-5l-.5-.5zm1.5 5H9V7h1z"/></symbol><symbol id="icon-key" viewBox="0 0 14 16"><path fill-rule="evenodd" d="M12.83 2.17C12.08 1.42 11.14 1.03 10 1c-1.13.03-2.08.42-2.83 1.17S6.04 3.86 6.01 5c0 .3.03.59.09.89L0 12v1l1 1h2l1-1v-1h1v-1h1v-1h2l1.09-1.11c.3.08.59.11.91.11 1.14-.03 2.08-.42 2.83-1.17S13.97 6.14 14 5c-.03-1.14-.42-2.08-1.17-2.83M11 5.38c-.77 0-1.38-.61-1.38-1.38s.61-1.38 1.38-1.38 1.38.61 1.38 1.38-.61 1.38-1.38 1.38"/></symbol><symbol id="icon-law" viewBox="0 0 24 24"><path fill-rule="evenodd" d="M12.75 2.75a.75.75 0 0 0-1.5 0V4.5H9.276a1.75 1.75 0 0 0-.985.303L6.596 5.957A.25.25 0 0 1 6.455 6H2.353a.75.75 0 1 0 0 1.5H3.93L.563 15.18a.76.76 0 0 0 .21.88c.08.064.161.125.309.221.186.121.452.278.792.433.68.311 1.662.62 2.876.62a6.9 6.9 0 0 0 2.876-.62c.34-.155.606-.312.792-.433.15-.097.23-.158.31-.223a.75.75 0 0 0 .209-.878L5.569 7.5h.886c.351 0 .694-.106.984-.303l1.696-1.154A.25.25 0 0 1 9.275 6h1.975v14.5H6.763a.75.75 0 0 0 0 1.5h10.474a.75.75 0 0 0 0-1.5H12.75V6h1.974c.05 0 .1.015.14.043l1.697 1.154c.29.197.633.303.984.303h.886l-3.368 7.68a.75.75 0 0 0 .23.896c.012.009 0 0 .002 0a3 3 0 0 0 .31.206c.185.112.45.256.79.4a7.3 7.3 0 0 0 2.855.568 7.3 7.3 0 0 0 2.856-.569c.338-.143.604-.287.79-.399a4 4 0 0 0 .31-.206.75.75 0 0 0 .23-.896L20.07 7.5h1.578a.75.75 0 0 0 0-1.5h-4.102a.25.25 0 0 1-.14-.043l-1.697-1.154a1.75 1.75 0 0 0-.984-.303H12.75zM2.193 15.198a5.4 5.4 0 0 0 2.557.635 5.4 5.4 0 0 0 2.557-.635L4.75 9.368zm14.51-.024q.123.06.275.126c.53.223 1.305.45 2.272.45a5.85 5.85 0 0 0 2.547-.576L19.25 9.367z"/></symbol><symbol id="icon-light-bulb" viewBox="0 0 12 16"><path fill-rule="evenodd" d="M6.5 0C3.48 0 1 2.19 1 5c0 .92.55 2.25 1 3 1.34 2.25 1.78 2.78 2 4v1h5v-1c.22-1.22.66-1.75 2-4 .45-.75 1-2.08 1-3 0-2.81-2.48-5-5.5-5m3.64 7.48c-.25.44-.47.8-.67 1.11-.86 1.41-1.25 2.06-1.45 3.23-.02.05-.02.11-.02.17H5c0-.06 0-.13-.02-.17-.2-1.17-.59-1.83-1.45-3.23-.2-.31-.42-.67-.67-1.11C2.44 6.78 2 5.65 2 5c0-2.2 2.02-4 4.5-4 1.22 0 2.36.42 3.22 1.19C10.55 2.94 11 3.94 11 5c0 .66-.44 1.78-.86 2.48M4 14h5c-.23 1.14-1.3 2-2.5 2s-2.27-.86-2.5-2"/></symbol><symbol id="icon-link-external" viewBox="0 0 24 24"><path d="M15.5 2.25a.75.75 0 0 1 .75-.75h5.5a.75.75 0 0 1 .75.75v5.5a.75.75 0 0 1-1.5 0V4.06l-6.22 6.22a.75.75 0 1 1-1.06-1.06L19.94 3h-3.69a.75.75 0 0 1-.75-.75"/><path d="M2.5 4.25c0-.966.784-1.75 1.75-1.75h8.5a.75.75 0 0 1 0 1.5h-8.5a.25.25 0 0 0-.25.25v15.5c0 .138.112.25.25.25h15.5a.25.25 0 0 0 .25-.25v-8.5a.75.75 0 0 1 1.5 0v8.5a1.75 1.75 0 0 1-1.75 1.75H4.25a1.75 1.75 0 0 1-1.75-1.75z"/></symbol><symbol id="icon-menu" viewBox="0 0 32 32"><path d="M4 8h24M4 16h24M4 24h24"/></symbol><symbol id="icon-mirror" viewBox="0 0 16 16"><path fill-rule="evenodd" d="M15.5 4.7 8.5 0l-7 4.7c-.3.19-.5.45-.5.8V16l7.5-4 7.5 4V5.5c0-.34-.2-.61-.5-.8m-.5 9.8-6-3.25V10H8v1.25L2 14.5v-9l6-4V6h1V1.5l6 4zM6 7h5V5l3 3-3 3V9H6v2L3 8l3-3z"/></symbol><symbol id="icon-note" viewBox="0 0 14 16"><path fill-rule="evenodd" d="M3 10h4V9H3zm0-2h6V7H3zm0-2h8V5H3zm10 6H1V3h12zM1 2c-.55 0-1 .45-1 1v9c0 .55.45 1 1 1h12c.55 0 1-.45 1-1V3c0-.55-.45-1-1-1z"/></symbol><symbol id="icon-options" viewBox="0 0 32 32"><path d="M28 6H4m24 10H4m24 10H4M24 3v6M8 13v6m12 4v6"/></symbol><symbol id="icon-organization" viewBox="0 0 16 16"><path fill-rule="evenodd" d="M16 12.999c0 .439-.45 1-1 1H7.995c-.539 0-.994-.447-.995-.999H1c-.54 0-1-.561-1-1 0-2.634 3-4 3-4s.229-.409 0-1c-.841-.621-1.058-.59-1-3 .058-2.419 1.367-3 2.5-3s2.442.58 2.5 3c.058 2.41-.159 2.379-1 3-.229.59 0 1 0 1s1.549.711 2.42 2.088C9.196 9.369 10 8.999 10 8.999s.229-.409 0-1c-.841-.62-1.058-.59-1-3 .058-2.419 1.367-3 2.5-3s2.437.581 2.495 3c.059 2.41-.158 2.38-1 3-.229.59 0 1 0 1s3.005 1.366 3.005 4"/></symbol><symbol id="icon-pencil" viewBox="0 0 14 16"><path fill-rule="evenodd" d="M0 12v3h3l8-8-3-3zm3 2H1v-2h1v1h1zm10.3-9.3L12 6 9 3l1.3-1.3a.996.996 0 0 1 1.41 0l1.59 1.59c.39.39.39 1.02 0 1.41"/></symbol><symbol id="icon-person-outline" viewBox="0 0 512 512"><title>Person</title><path fill="none" stroke="currentColor" stroke-linecap="round" stroke-linejoin="round" stroke-width="32" d="M344 144c-3.92 52.87-44 96-88 96s-84.15-43.12-88-96c-4-55 35-96 88-96s92 42 88 96"/><path fill="none" stroke="currentColor" stroke-miterlimit="10" stroke-width="32" d="M256 304c-87 0-175.3 48-191.64 138.6C62.39 453.52 68.57 464 80 464h352c11.44 0 17.62-10.48 15.65-21.4C431.3 352 343 304 256 304z"/></symbol><symbol id="icon-plus" viewBox="0 0 12 16"><path fill-rule="evenodd" d="M12 9H7v5H5V9H0V7h5V2h2v5h5z"/></symbol><symbol id="icon-pulse" viewBox="0 0 14 16"><path fill-rule="evenodd" d="M11.5 8 8.8 5.4 6.6 8.5 5.5 1.6 2.38 8H0v2h3.6l.9-1.8.9 5.4L9 8.5l1.6 1.5H14V8z"/></symbol><symbol id="icon-question" viewBox="0 0 14 16"><path fill-rule="evenodd" d="M6 10h2v2H6zm4-3.5C10 8.64 8 9 8 9H6c0-.55.45-1 1-1h.5c.28 0 .5-.22.5-.5v-1c0-.28-.22-.5-.5-.5h-1c-.28 0-.5.22-.5.5V7H4c0-1.5 1.5-3 3-3s3 1 3 2.5M7 2.3c3.14 0 5.7 2.56 5.7 5.7s-2.56 5.7-5.7 5.7A5.71 5.71 0 0 1 1.3 8c0-3.14 2.56-5.7 5.7-5.7M7 1C3.14 1 0 4.14 0 8s3.14 7 7 7 7-3.14 7-7-3.14-7-7-7"/></symbol><symbol id="icon-reload-outline" viewBox="0 0 512 512"><title>Reload</title><path fill="none" stroke="currentColor" stroke-linecap="round" stroke-miterlimit="10" stroke-width="32" d="m400 148-21.12-24.57A191.43 191.43 0 0 0 240 64C134 64 48 150 48 256s86 192 192 192a192.09 192.09 0 0 0 181.07-128"/><path d="M464 97.42V208a16 16 0 0 1-16 16H337.42c-14.26 0-21.4-17.23-11.32-27.31L436.69 86.1C446.77 76 464 83.16 464 97.42"/></symbol><symbol id="icon-repo-forked" viewBox="0 0 10 16"><path fill-rule="evenodd" d="M8 1a1.993 1.993 0 0 0-1 3.72V6L5 8 3 6V4.72A1.993 1.993 0 0 0 2 1a1.993 1.993 0 0 0-1 3.72V6.5l3 3v1.78A1.993 1.993 0 0 0 5 15a1.993 1.993 0 0 0 1-3.72V9.5l3-3V4.72A1.993 1.993 0 0 0 8 1M2 4.2C1.34 4.2.8 3.65.8 3S1.35 1.8 2 1.8s1.2.55 1.2 1.2S2.65 4.2 2 4.2m3 10c-.66 0-1.2-.55-1.2-1.2s.55-1.2 1.2-1.2 1.2.55 1.2 1.2-.55 1.2-1.2 1.2m3-10c-.66 0-1.2-.55-1.2-1.2S7.35 1.8 8 1.8s1.2.55 1.2 1.2S8.65 4.2 8 4.2"/></symbol><symbol id="icon-repo-push" viewBox="0 0 12 16"><path fill-rule="evenodd" d="M4 3H3V2h1zM3 5h1V4H3zm4 0L4 9h2v7h2V9h2zm4-5H1C.45 0 0 .45 0 1v12c0 .55.45 1 1 1h4v-1H1v-2h4v-1H2V1h9.02L11 10H9v1h2v2H9v1h2c.55 0 1-.45 1-1V1c0-.55-.45-1-1-1"/></symbol><symbol id="icon-save" viewBox="0 0 24 24"><path d="M19 21H5a2 2 0 0 1-2-2V5a2 2 0 0 1 2-2h11l5 5v11a2 2 0 0 1-2 2"/><path d="M17 21v-8H7v8M7 3v5h8"/></symbol><symbol id="icon-server" viewBox="0 0 12 16"><path fill-rule="evenodd" d="M11 6H1c-.55 0-1 .45-1 1v2c0 .55.45 1 1 1h10c.55 0 1-.45 1-1V7c0-.55-.45-1-1-1M2 9H1V7h1zm2 0H3V7h1zm2 0H5V7h1zm2 0H7V7h1zm3-8H1c-.55 0-1 .45-1 1v2c0 .55.45 1 1 1h10c.55 0 1-.45 1-1V2c0-.55-.45-1-1-1M2 4H1V2h1zm2 0H3V2h1zm2 0H5V2h1zm2 0H7V2h1zm3-1h-1V2h1zm0 8H1c-.55 0-1 .45-1 1v2c0 .55.45 1 1 1h10c.55 0 1-.45 1-1v-2c0-.55-.45-1-1-1m-9 3H1v-2h1zm2 0H3v-2h1zm2 0H5v-2h1zm2 0H7v-2h1z"/></symbol><symbol id="icon-settings" viewBox="0 0 32 32"><path d="M13 2v4l-2 1-3-3-4 4 3 3-1 2H2v6h4l1 2-3 3 4 4 3-3 2 1v4h6v-4l2-1 3 3 4-4-3-3 1-2h4v-6h-4l-1-2 3-3-4-4-3 3-2-1V2Z"/><circle cx="16" cy="16" r="4"/></symbol><symbol id="icon-shirt" viewBox="0 0 45 40"><path fill="#fff" d="M1 5.136 7.374.889C18.61 5.817 25.22 5.776 37.55.889L44 5.136v10.617l-6.45-2.123V39.11H7.374V13.63L1 15.753z"/></symbol><symbol id="icon-star" viewBox="0 0 14 16"><path fill-rule="evenodd" d="m14 6-4.9-.64L7 1 4.9 5.36 0 6l3.6 3.26L2.67 14 7 11.67 11.33 14l-.93-4.74z"/></symbol><symbol id="icon-substitute" viewBox="0 0 10 10"><path fill="#f44336" fill-rule="evenodd" d="M3.5 4V0h-2v4H0l2.5 6L5 4z" clip-rule="evenodd"/><path fill="#439328" fill-rule="evenodd" d="M6.5 6v4h2V6H10L7.5 0 5 6z" clip-rule="evenodd"/></symbol><symbol id="icon-text-size" viewBox="0 0 18 16"><path fill-rule="evenodd" d="M13.62 9.08 12.1 3.66h-.06l-1.5 5.42zM5.7 10.13S4.68 6.52 4.53 6.02h-.08l-1.13 4.11zM17.31 14h-2.25l-.95-3.25h-4.07L9.09 14H6.84l-.69-2.33H2.87L2.17 14H0l3.3-9.59h2.5l2.17 6.34L10.86 2h2.52l3.94 12z"/></symbol><symbol id="icon-tools" viewBox="0 0 16 16"><path fill-rule="evenodd" d="M4.48 7.27c.26.26 1.28 1.33 1.28 1.33l.56-.58-.88-.91 1.69-1.8s-.76-.74-.43-.45c.32-1.19.03-2.51-.87-3.44C4.93.5 3.66.2 2.52.51l1.93 2-.51 1.96-1.89.52-1.93-2C-.19 4.17.1 5.48 1 6.4c.94.98 2.29 1.26 3.48.87m6.44 1.94-2.33 2.3 3.84 3.98c.31.33.73.49 1.14.49s.82-.16 1.14-.49c.63-.65.63-1.7 0-2.35zM16 2.53 13.55 0 6.33 7.46l.88.91-4.31 4.46-.99.53-1.39 2.27.35.37 2.2-1.44.51-1.02L7.9 9.08l.88.91z"/></symbol><symbol id="icon-trash" viewBox="0 0 32 32"><path d="M28 6H6l2 24h16l2-24H4m12 6v12m5-12-1 12m-9-12 1 12m0-18 1-4h6l1 4"/></symbol><symbol id="icon-trophy-outline" viewBox="0 0 512 512"><title>Trophy</title><path fill="none" stroke="currentColor" stroke-linecap="round" stroke-linejoin="round" stroke-width="32" d="M176 464h160m-80 0V336m128-112c0-50.64-.08-134.63-.12-160a16 16 0 0 0-16-16l-223.79.26a16 16 0 0 0-16 15.95c0 30.58-.13 129.17-.13 159.79 0 64.28 83 112 128 112S384 288.28 384 224"/><path fill="none" stroke="currentColor" stroke-linecap="round" stroke-linejoin="round" stroke-width="32" d="M128 96H48v16c0 55.22 33.55 112 80 112M384 96h80v16c0 55.22-33.55 112-80 112"/></symbol><symbol id="icon-watch" viewBox="0 0 12 16"><path fill-rule="evenodd" d="M6 8h2v1H5V5h1zm6 0c0 2.22-1.2 4.16-3 5.19V15c0 .55-.45 1-1 1H4c-.55 0-1-.45-1-1v-1.81C1.2 12.16 0 10.22 0 8s1.2-4.16 3-5.19V1c0-.55.45-1 1-1h4c.55 0 1 .45 1 1v1.81c1.8 1.03 3 2.97 3 5.19m-1 0c0-2.77-2.23-5-5-5S1 5.23 1 8s2.23 5 5 5 5-2.23 5-5"/></symbol><symbol id="icon-x" viewBox="0 0 12 16"><path fill-rule="evenodd" d="m7.48 8 3.75 3.75-1.48 1.48L6 9.48l-3.75 3.75-1.48-1.48L4.52 8 .77 4.25l1.48-1.48L6 6.52l3.75-3.75 1.48 1.48z"/></symbol></svg>